<svg width="65" height="64" viewBox="0 0 65 64" fill="none" xmlns="http://www.w3.org/2000/svg">
<path fill-rule="evenodd" clip-rule="evenodd" d="M34.3903 0.914307C34.756 0.914307 35.6017 1.09716 36.2189 1.30288C36.8589 1.53145 37.7274 2.05716 38.1846 2.51431C38.7103 3.01716 39.1217 3.70288 39.3046 4.34288C39.5103 5.07431 39.5103 5.60002 39.3503 6.17145C39.2131 6.60574 38.8931 7.24574 38.6417 7.61145C38.3674 7.95431 37.7274 8.45716 37.2017 8.73145C36.4703 9.09716 35.6474 9.25716 33.956 9.34859C32.4246 9.44002 31.6703 9.57716 31.6017 9.76002C31.556 9.92002 31.8531 10.2172 32.2189 10.4C32.5846 10.5829 33.1331 10.7429 33.4303 10.7429C33.7046 10.7429 34.4589 10.9257 35.076 11.1314C35.7389 11.36 36.6303 11.9086 37.1789 12.4572C37.8417 13.0972 38.1617 13.6457 38.276 14.2857C38.3674 14.7886 38.3674 15.5429 38.2989 15.9543C38.2303 16.3429 37.8189 17.0514 37.4303 17.5314C37.0189 17.9886 36.3103 18.5143 35.876 18.72C35.4417 18.9029 34.0931 19.1086 32.9046 19.1772C31.076 19.2915 30.7331 19.3829 30.6874 19.7029C30.6417 20.0229 30.916 20.2057 31.8074 20.4572C32.4703 20.6629 33.2017 20.9829 33.4303 21.2115C33.6589 21.44 33.8417 21.92 33.8189 22.3543C33.8189 22.7657 33.636 23.2686 33.3617 23.5429C33.0417 23.8629 32.6074 24 31.9217 24C31.396 24 30.436 23.7486 29.8189 23.4743C29.1789 23.1772 28.3331 22.56 27.9217 22.1029C27.5103 21.6229 27.1217 20.8914 27.0531 20.3886C26.9617 19.9314 26.9846 19.2457 27.0531 18.8572C27.1446 18.4686 27.4646 17.8286 27.7617 17.4172C28.0817 17.0286 28.7674 16.4572 29.2931 16.1829C30.0703 15.7943 30.7331 15.68 32.3331 15.6572C33.4531 15.6343 34.5274 15.5429 34.6646 15.4743C34.8931 15.36 34.8703 15.2 34.5503 14.8572C34.3446 14.5829 33.796 14.3314 33.3617 14.2629C32.9274 14.1943 32.1503 14.0572 31.6474 13.92C31.1446 13.8057 30.3674 13.44 29.9331 13.12C29.4989 12.8229 28.9046 12.16 28.6303 11.7029C28.3103 11.1772 28.1046 10.4914 28.1046 9.89716C28.1046 9.34859 28.196 8.68574 28.3103 8.41145C28.4246 8.11431 28.8589 7.54288 29.2703 7.13145C29.7274 6.69716 30.5274 6.24002 31.1903 6.03431C31.8303 5.85145 33.0189 5.73716 33.8646 5.76002C34.8246 5.80574 35.5103 5.71431 35.6931 5.55431C35.9446 5.32574 35.9217 5.21145 35.6474 4.91431C35.4646 4.70859 34.9389 4.48002 34.5046 4.41145C34.0703 4.34288 33.5217 4.18288 33.2931 4.09145C33.0874 3.97716 32.7903 3.61145 32.676 3.26859C32.4931 2.78859 32.516 2.44574 32.7217 1.96574C32.8817 1.60002 33.1789 1.23431 33.3617 1.12002C33.5446 1.00574 34.0246 0.914307 34.3903 0.914307V0.914307ZM9.29314 1.62288C9.59028 1.60002 10.2531 1.71431 10.7789 1.82859C11.3274 1.96574 12.1731 2.40002 12.6531 2.81145C13.1331 3.20002 13.7731 4.00002 14.0474 4.57145C14.3446 5.14288 14.6874 6.21716 14.8703 6.97145C15.0303 7.74859 15.1446 9.64573 15.1217 11.3143C15.0989 13.3486 14.916 15.3829 14.5046 17.7143C14.1846 19.6115 13.6131 22.3314 13.2246 23.7715C12.8589 25.2115 12.4246 26.6514 12.2646 26.9714C12.1046 27.2686 11.7389 27.6343 11.4189 27.7486C11.0074 27.8857 10.6189 27.8629 10.0931 27.6343C9.65885 27.4515 9.27028 27.0857 9.156 26.7429C9.04171 26.3543 9.20171 25.3715 9.636 23.6572C10.0017 22.2629 10.5503 19.7486 10.8703 18.0572C11.1903 16.3429 11.5103 13.6457 11.5789 12C11.6474 10.1943 11.6017 8.52574 11.4646 7.77145C11.3046 7.08574 10.9846 6.24002 10.7331 5.87431C10.3903 5.41716 10.0931 5.25716 9.476 5.25716C8.85885 5.25716 8.58457 5.39431 8.28743 5.89716C8.05885 6.24002 7.85314 7.08574 7.80743 7.77145C7.76171 8.45716 7.60171 9.32574 7.46457 9.66859C7.30457 10.0114 6.89314 10.4229 6.50457 10.56C5.956 10.7657 5.70457 10.7657 5.24743 10.4915C4.92743 10.3086 4.53885 9.85145 4.356 9.48573C4.10457 8.93716 4.10457 8.48002 4.31028 7.15431C4.44743 6.24002 4.79028 5.00574 5.06457 4.41145C5.36171 3.81716 5.93314 3.08574 6.32171 2.76574C6.73314 2.44574 7.46457 2.05716 7.92171 1.89716C8.40171 1.76002 9.01886 1.62288 9.29314 1.62288ZM49.7046 3.45145C50.2074 3.42859 50.9846 3.61145 51.4189 3.84002C51.9217 4.11431 52.4017 4.64002 52.7446 5.28002C53.0189 5.82859 53.2474 6.53716 53.2474 6.85716C53.2474 7.17716 53.0417 7.86288 52.7903 8.41145C52.5389 8.93716 51.9903 9.57716 51.5789 9.85145C51.0074 10.1943 50.5503 10.2857 49.5903 10.24C48.7674 10.1943 48.0817 9.98859 47.5789 9.64574C47.1446 9.34859 46.7103 8.75431 46.4817 8.18288C46.2531 7.56573 46.1617 6.88002 46.2531 6.35431C46.3217 5.87431 46.7103 5.12002 47.076 4.66288C47.4646 4.20574 47.9903 3.74859 48.2874 3.65716C48.5617 3.54288 49.2017 3.45145 49.7046 3.45145ZM57.9331 12.2286C58.4817 12.2743 59.0531 12.5486 59.3503 12.8457C59.6474 13.1429 59.9674 13.6686 60.0589 14.0572C60.1731 14.4457 60.1731 15.04 60.0817 15.4286C59.9903 15.8172 59.6246 16.3657 59.3046 16.6857C58.8246 17.1429 58.4589 17.2572 57.5903 17.2572C56.7217 17.2572 56.356 17.1429 55.876 16.6857C55.556 16.3657 55.1903 15.8172 55.0989 15.4286C55.0074 15.04 55.0074 14.4457 55.1217 14.0572C55.236 13.6686 55.4874 13.1886 55.6703 12.9372C55.876 12.7086 56.2417 12.4115 56.516 12.32C56.7903 12.2057 57.4303 12.16 57.9331 12.2286ZM20.6074 13.9429C20.6989 13.9429 20.7903 14.3314 20.7903 14.8114C20.7903 15.2686 20.9503 16.2286 21.156 16.9143C21.3617 17.6 21.8874 18.9029 22.3217 19.7715C22.7789 20.6629 23.6703 22.1943 24.3103 23.2C24.9731 24.2057 26.3446 26.0572 27.3503 27.3143C28.356 28.5714 30.5731 30.9486 32.2417 32.5714C33.9331 34.2172 36.1731 36.2286 37.2474 37.0515C38.3217 37.8972 39.9674 39.0629 40.9046 39.68C41.8417 40.2743 43.3274 41.12 44.2189 41.5314C45.1103 41.9429 46.4817 42.4457 47.3046 42.6515C48.1274 42.8572 49.0646 42.9715 49.4074 42.9257C49.7503 42.9029 50.0246 42.9486 49.9789 43.04C49.956 43.1543 45.316 45.28 39.6474 47.7943C34.0017 50.3086 24.036 54.72 17.5217 57.6229C11.0303 60.5029 5.476 62.8572 5.17885 62.8572C4.90457 62.88 4.15028 62.5372 3.53314 62.1257C2.89314 61.7143 2.04743 60.8686 1.636 60.2286C1.22457 59.6115 0.881712 58.8343 0.904569 58.5143C0.904569 58.1943 5.29314 48.0457 10.6646 35.9314C16.0131 23.84 20.4931 13.9429 20.6074 13.9429ZM45.316 13.9429C45.9103 13.92 46.4817 14.08 46.8474 14.3543C47.1674 14.5829 47.556 15.0857 47.716 15.4514C47.8989 15.84 47.9674 16.4572 47.8989 16.9143C47.8303 17.3486 47.5331 17.9429 47.2589 18.2172C46.9617 18.4914 46.4131 18.8343 46.0474 18.9714C45.4989 19.1772 45.156 19.1543 44.4017 18.88C43.716 18.6286 43.3046 18.2857 43.0531 17.7829C42.8093 17.28 42.7255 16.7238 42.8017 16.1143C42.8931 15.4743 43.1446 14.9943 43.6474 14.5829C44.1731 14.1029 44.5846 13.9429 45.316 13.9429ZM52.2874 19.2C52.676 19.2 53.3389 19.36 53.7046 19.5429C54.0703 19.7257 54.5046 20.1143 54.6417 20.4114C54.8017 20.6857 54.8931 21.3257 54.8931 21.8286C54.8703 22.3314 54.6874 22.9715 54.5046 23.2686C54.3217 23.5429 53.7731 23.9314 53.316 24.1372C52.6074 24.4343 52.2874 24.4572 51.6017 24.2514C51.076 24.0914 50.5503 23.7257 50.276 23.3143C50.0246 22.9257 49.8189 22.2629 49.8189 21.8286C49.8189 21.3943 49.9331 20.8 50.0474 20.5257C50.1846 20.2286 50.5731 19.8172 50.916 19.6115C51.2589 19.3829 51.876 19.2 52.2874 19.2ZM59.1446 26.1943C60.676 26.24 62.1846 26.3772 62.5046 26.5143C62.8246 26.6514 63.236 26.9715 63.4417 27.2686C63.6703 27.5886 63.7389 28.0229 63.6703 28.5257C63.5789 28.96 63.3274 29.3486 63.0303 29.5086C62.6874 29.6915 60.9046 29.7829 58.1617 29.8057C54.4131 29.8514 53.5446 29.92 51.7617 30.3772C50.6417 30.6743 48.9274 31.2229 47.9903 31.5886C47.0531 31.9772 45.8646 32.48 45.3617 32.7314C44.8589 32.9829 43.8531 33.6 43.1446 34.08C42.4131 34.5829 41.5446 35.04 41.2017 35.1086C40.7446 35.2 40.3789 35.0857 39.9446 34.7657C39.4417 34.3772 39.3046 34.1029 39.3046 33.3714C39.3046 32.5486 39.4189 32.3657 40.4017 31.6343C40.996 31.2 42.4589 30.3314 43.6474 29.7143C44.836 29.12 46.6874 28.32 47.7617 27.9314C48.836 27.5657 50.4817 27.0857 51.4189 26.88C52.356 26.6514 53.8417 26.4 54.7331 26.2857C55.6246 26.1714 57.5903 26.1257 59.1446 26.1943ZM4.196 27.8857C4.79028 27.8857 5.40743 28.0686 5.91028 28.3886C6.34457 28.6857 6.916 29.2115 7.16743 29.5543C7.51028 30.0114 7.64743 30.5372 7.64743 31.3829C7.64743 32.2286 7.48743 32.7772 7.12171 33.3257C6.84743 33.7143 6.276 34.2172 5.88743 34.4457C5.476 34.6514 4.72171 34.8115 4.21885 34.8115C3.716 34.8115 2.96171 34.6514 2.57314 34.4457C2.16171 34.2172 1.59028 33.7143 1.316 33.3257C0.927426 32.7772 0.790283 32.2514 0.790283 31.3829C0.790283 30.5372 0.927426 30.0114 1.27028 29.5543C1.52171 29.2115 2.09314 28.6857 2.50457 28.4114C2.98457 28.0914 3.62457 27.8857 4.196 27.8857ZM57.8189 31.4057C58.2531 31.4743 58.8703 31.7257 59.1903 31.9543C59.5103 32.2057 59.8989 32.7543 60.0589 33.2114C60.2874 33.92 60.2646 34.1943 59.9903 34.9257C59.8074 35.4057 59.3503 35.9543 58.9617 36.1829C58.596 36.3886 57.956 36.5714 57.5903 36.5714C57.2246 36.5714 56.6074 36.3886 56.2189 36.1829C55.8531 35.9543 55.4417 35.5429 55.3046 35.2686C55.1903 34.9715 55.076 34.3772 55.076 33.9429C55.076 33.5086 55.1903 32.9372 55.3046 32.6857C55.4417 32.4343 55.876 32.0229 56.2874 31.7715C56.8131 31.4286 57.2474 31.3372 57.8189 31.4057ZM56.676 39.6115C57.4531 39.6572 58.3217 39.9086 58.916 40.2514C59.4646 40.5486 60.1274 41.1657 60.4017 41.6C60.6989 42.1029 60.8589 42.7886 60.8589 43.4286C60.8589 44 60.6989 44.7772 60.4931 45.1429C60.3103 45.5086 59.8531 46.1029 59.4874 46.4457C59.1446 46.7886 58.2303 47.3372 57.476 47.6572C56.7217 48 55.876 48.3886 55.5789 48.5257C55.2817 48.6857 55.076 48.96 55.1217 49.1429C55.1903 49.3943 55.4417 49.4629 56.1046 49.4172C56.6074 49.3943 57.8874 49.3257 58.9617 49.3029C60.5617 49.28 61.0417 49.3486 61.6131 49.7143C62.0246 49.9657 62.5731 50.4915 62.8703 50.8572C63.2131 51.2915 63.4417 51.9543 63.5103 52.6857C63.5789 53.6229 63.4874 54.0343 63.0074 54.9257C62.6646 55.52 62.0246 56.2286 61.5446 56.5257C61.0646 56.8229 60.0817 57.3029 59.3274 57.6229C58.596 57.92 57.8874 58.3086 57.796 58.4686C57.6589 58.6515 57.7274 58.8114 58.0017 58.9486C58.2074 59.0629 58.9617 59.1086 59.6474 59.04C60.6989 58.9486 60.996 58.9943 61.4303 59.4057C61.7274 59.7029 61.9331 60.16 61.9331 60.5714C61.9331 60.96 61.7274 61.4857 61.4303 61.8057C61.0874 62.1486 60.516 62.4 59.7617 62.5143C59.1446 62.6057 58.2074 62.6286 57.7046 62.5372C57.2017 62.4686 56.4474 62.1714 56.0131 61.8972C55.5789 61.6 55.0303 61.12 54.8017 60.8C54.5731 60.48 54.3217 59.8172 54.2303 59.3143C54.1617 58.7886 54.2303 58.0114 54.4131 57.4857C54.5731 56.9829 55.076 56.2057 55.5103 55.7715C56.0131 55.2686 56.9731 54.72 57.9331 54.3543C58.8246 54.0115 59.6931 53.5772 59.876 53.3714C60.1731 53.0286 60.1731 52.96 59.876 52.7772C59.6931 52.6629 59.2131 52.6172 58.8474 52.6629C58.4817 52.7314 57.4989 52.8686 56.676 52.9372C55.556 53.0743 54.9389 53.0057 54.1617 52.7314C53.5903 52.5486 52.8131 52.0229 52.4246 51.6115C52.0589 51.2 51.6703 50.4686 51.5789 50.0115C51.4874 49.5315 51.5331 48.7086 51.6703 48.1829C51.8303 47.5429 52.2417 46.88 52.8589 46.2857C53.4989 45.6686 54.3674 45.1429 55.4874 44.7314C56.3789 44.3886 57.2017 43.9543 57.316 43.7715C57.4074 43.5886 57.4303 43.36 57.3617 43.3143C57.2931 43.2457 56.996 43.1772 56.676 43.1772C56.356 43.1543 55.6474 43.1772 55.076 43.2C54.5046 43.2 53.9103 43.0857 53.7274 42.9257C53.5674 42.7657 53.316 42.3772 53.2017 42.0572C53.0874 41.7143 53.0874 41.2343 53.2246 40.8686C53.3389 40.5029 53.476 40.2286 53.5217 40.2286C53.5674 40.2286 54.0017 40.0686 54.5046 39.8857C55.0531 39.68 55.9217 39.5657 56.676 39.6115ZM41.8189 52.3429C42.1389 52.3429 42.7331 52.5486 43.1446 52.8C43.5331 53.0514 44.036 53.6229 44.2189 54.0572C44.4017 54.4915 44.4931 55.1315 44.4246 55.4972C44.356 55.84 44.1731 56.2743 44.036 56.4572C43.876 56.6629 43.5103 57.0057 43.1903 57.2114C42.8703 57.4172 42.2303 57.6 41.7731 57.6C41.0874 57.6 40.7446 57.44 40.1046 56.8C39.4646 56.16 39.3046 55.8172 39.3046 55.0857C39.3046 54.5829 39.4189 53.9657 39.5331 53.7143C39.6703 53.4629 40.1046 53.0514 40.516 52.8C40.9046 52.5486 41.4989 52.3429 41.8189 52.3429Z" fill="#5B3C24"/>
</svg>
