<svg width="64" height="64" viewBox="0 0 64 64" fill="none" xmlns="http://www.w3.org/2000/svg">
<path fill-rule="evenodd" clip-rule="evenodd" d="M20.1812 0.822549C20.4612 0.842549 21.0612 0.962549 21.5312 1.07255C22.0012 1.18255 22.6712 1.44255 23.0312 1.64255C23.3912 1.84255 23.9012 2.18255 24.1612 2.40255C24.4312 2.62255 24.8212 3.02255 25.0312 3.30255C25.2412 3.57255 25.5812 4.09255 25.7812 4.45255C26.0312 4.88255 26.2112 5.40255 26.3412 6.00255C26.4412 6.50255 26.5312 7.16255 26.5312 7.47255C26.5312 7.79255 26.4612 8.40255 26.3812 8.82255C26.3012 9.25255 26.0912 9.89255 25.9212 10.2525C25.7512 10.6125 25.4712 11.1025 25.3012 11.3425C25.1212 11.5925 24.7812 11.9925 24.5312 12.2325C24.2812 12.4825 23.8312 12.8425 23.5312 13.0325C23.2312 13.2325 22.6712 13.5125 22.2812 13.6725C21.8912 13.8326 21.2012 14.0125 20.7312 14.0825C20.0912 14.1625 19.6512 14.1625 18.9812 14.0725C18.4612 14.0125 17.8112 13.8425 17.4312 13.6825C17.0712 13.5325 16.5312 13.2425 16.2312 13.0425C15.9312 12.8425 15.4512 12.4525 15.1812 12.1825C14.9112 11.9125 14.5112 11.4325 14.3012 11.1225C14.1012 10.8125 13.9312 10.5325 13.9312 10.5025C13.9312 10.4725 13.8412 10.2625 13.7412 10.0225C13.6312 9.79255 13.4912 9.42255 13.4412 9.20255C13.3812 8.98255 13.3012 8.42255 13.2712 7.95255C13.2312 7.43255 13.2512 6.80255 13.3312 6.35255C13.4012 5.94255 13.5612 5.36255 13.6912 5.07255C13.8212 4.79255 13.9312 4.52255 13.9312 4.47255C13.9312 4.43255 14.0912 4.17255 14.2712 3.90255C14.4612 3.62255 14.8312 3.17255 15.1012 2.89255C15.3612 2.61255 15.7412 2.27255 15.9312 2.14255C16.1212 2.00255 16.5312 1.75255 16.8312 1.58255C17.1312 1.41255 17.7612 1.18255 18.2312 1.07255C18.7012 0.952549 19.2212 0.842549 19.3812 0.822549C19.5412 0.792549 19.9112 0.792549 20.1812 0.822549ZM42.4312 0.822549C42.6812 0.852549 43.1912 0.942549 43.5812 1.01255C43.9712 1.09255 44.5912 1.30255 44.9812 1.48255C45.3712 1.65255 45.9712 2.05255 46.3312 2.35255C46.6912 2.65255 47.0812 3.01255 47.2112 3.15255C47.3312 3.29255 47.6112 3.69255 47.8312 4.05255C48.0412 4.41255 48.3412 5.06255 48.4912 5.50255C48.7312 6.20255 48.7612 6.46255 48.7612 7.50255C48.7612 8.56255 48.7312 8.79255 48.4812 9.50255C48.3312 9.94255 48.0612 10.5525 47.8912 10.8525C47.7312 11.1525 47.2312 11.7625 46.7812 12.2025C46.1812 12.8025 45.7912 13.1025 45.2312 13.3725C44.8212 13.5725 44.2712 13.8025 44.0012 13.8925C43.7412 13.9825 43.1612 14.0825 42.7012 14.1125C42.2412 14.1525 41.5612 14.1225 41.1312 14.0625C40.7212 14.0025 40.0712 13.8125 39.6812 13.6625C39.2912 13.5025 38.7512 13.2225 38.4812 13.0425C38.2012 12.8625 37.7312 12.4625 37.4212 12.1525C37.1212 11.8525 36.6812 11.2825 36.4512 10.9025C36.2212 10.5225 35.9212 9.82255 35.7712 9.35255C35.5612 8.68255 35.5112 8.29255 35.5012 7.50255C35.5012 6.69255 35.5512 6.33255 35.7612 5.62255C35.9112 5.14255 36.1712 4.51255 36.3412 4.22255C36.5112 3.94255 36.8612 3.46255 37.1212 3.16255C37.3712 2.86255 37.8512 2.41255 38.1812 2.17255C38.5112 1.93255 39.0512 1.60255 39.3812 1.45255C39.7112 1.29255 40.3212 1.10255 40.7312 1.01255C41.1412 0.932549 41.5912 0.842549 41.7312 0.822549C41.8712 0.792549 42.1812 0.802549 42.4312 0.822549ZM15.5312 13.9625C16.3912 13.9525 16.7312 14.0025 17.4312 14.2125C17.9012 14.3525 18.4012 14.5625 18.5512 14.6625C18.7112 14.7625 18.8612 14.8525 18.9012 14.8525C18.9512 14.8525 19.2712 15.0925 19.6312 15.3825C19.9912 15.6725 20.4912 16.1825 20.7412 16.5025C21.0012 16.8325 21.2912 17.3025 21.3812 17.5525C21.4812 17.8025 21.6012 18.0425 21.6412 18.1025C21.6812 18.1625 21.8112 18.7425 21.9212 19.4025C22.0312 20.0625 22.2412 21.2825 22.3812 22.1025C22.5212 22.9325 22.6612 23.6225 22.6812 23.6525C22.7012 23.6825 22.7912 23.9625 22.8812 24.2825C22.9612 24.5925 23.1812 25.1325 23.3612 25.4625C23.5312 25.8025 23.8612 26.2325 24.0812 26.4226C24.3012 26.6126 24.7312 26.9025 25.0312 27.0625C25.3312 27.2225 25.9612 27.4925 26.4312 27.6525C26.9012 27.8125 27.5612 28.0025 28.5312 28.2025L28.9012 27.8125C29.1112 27.6025 29.4612 27.3326 29.6812 27.2225C30.0212 27.0525 30.3612 27.0125 32.0312 26.9425C33.1012 26.9025 34.4212 26.7925 34.9612 26.7125C35.4912 26.6225 36.1412 26.5025 36.4012 26.4525C36.6712 26.3925 37.1012 26.2325 37.3812 26.0926C37.6512 25.9425 38.0312 25.6925 38.2112 25.5125C38.4012 25.3425 38.6812 24.9426 38.8412 24.6225C39.0012 24.3125 39.2412 23.6325 39.3712 23.1225C39.5112 22.6225 39.6712 21.8825 39.7312 21.5025C39.7912 21.1225 39.9512 20.2425 40.0812 19.5525C40.2112 18.8625 40.3512 18.2125 40.3812 18.1025C40.4212 17.9925 40.5712 17.6725 40.7112 17.4025C40.8512 17.1225 41.1012 16.7225 41.2712 16.5125C41.4412 16.3025 41.7012 16.0025 41.8412 15.8625C41.9812 15.7225 42.3112 15.4425 42.5912 15.2425C42.8612 15.0425 43.3512 14.7325 43.6812 14.5725C44.0112 14.4025 44.5512 14.2025 44.8812 14.1125C45.2212 14.0225 45.8912 13.9525 46.4312 13.9525C47.1512 13.9625 47.5512 14.0125 48.0812 14.1825C48.4712 14.3125 48.9812 14.5525 49.2312 14.7225C49.4812 14.8925 49.8412 15.2025 50.0312 15.4125C50.2312 15.6325 50.4812 15.9625 50.6012 16.1525C50.7212 16.3425 50.9412 16.8425 51.0812 17.2525C51.2212 17.6625 51.4412 18.4525 51.5812 19.0025C51.7112 19.5525 51.9612 20.5425 52.1312 21.2025C52.3012 21.8625 52.5512 22.8325 52.6812 23.3525C52.8112 23.8725 53.0212 24.7525 53.1612 25.3025C53.3012 25.8525 53.5112 26.7125 53.6312 27.2025C53.7512 27.6925 53.9312 28.3925 54.0312 28.7525C54.1312 29.1125 54.3112 29.8125 54.4312 30.3025C54.5512 30.7925 54.7612 31.6525 54.8912 32.2025C55.0312 32.7525 55.2512 33.6925 55.3912 34.3025C55.5312 34.9125 55.6912 35.6225 55.7412 35.9025C55.7912 36.1726 55.8412 36.4025 55.8612 36.4025C55.8712 36.4025 56.0812 36.5126 56.3312 36.6325C56.5812 36.7626 56.9312 37.0025 57.1012 37.1625C57.2812 37.3225 57.5512 37.6426 57.7012 37.8726C57.8412 38.1125 58.0212 38.4825 58.2012 39.1026L63.2312 39.1525V53.8526H43.2312V39.1525H45.7312C47.6412 39.1525 48.2412 39.1226 48.2712 39.0225C48.2912 38.9626 48.3912 38.6726 48.4912 38.4025C48.5912 38.1125 48.8612 37.6926 49.1412 37.4025C49.4012 37.1225 49.8412 36.7925 50.1112 36.6525C50.3912 36.5126 50.6212 36.3326 50.6212 36.2525C50.6212 36.1726 50.5812 35.9226 50.5212 35.7025C50.4612 35.4825 50.3112 34.8526 50.1912 34.3025C50.0612 33.7525 49.8112 32.7825 49.6412 32.1525C49.4612 31.5225 49.2112 30.6225 49.0812 30.1525C48.9512 29.6825 48.7112 28.8725 48.5512 28.3525C48.3912 27.8325 48.0312 26.7225 47.7512 25.9025C47.4712 25.0725 47.1312 24.2526 46.9912 24.0725C46.7912 23.8326 46.6612 23.7626 46.4612 23.7726C46.2012 23.8025 46.1812 23.8425 46.1512 24.2525C46.1412 24.5125 46.1812 24.7925 46.2612 24.9025C46.3312 25.0125 46.4712 25.3525 46.5712 25.6525C46.6712 25.9525 46.8112 26.3425 46.8812 26.5025C46.9512 26.6625 47.1812 27.3225 47.3812 27.9525C47.5812 28.5825 47.8212 29.3025 47.9012 29.5525C47.9812 29.8025 48.1612 30.4325 48.3012 30.9525C48.4312 31.4725 48.6512 32.3325 48.7712 32.8526C48.9012 33.3725 49.0512 33.9625 49.1112 34.1525C49.1712 34.3425 49.2712 34.8125 49.3512 35.1925C49.4712 35.8525 49.4712 35.8925 49.2812 35.9925C49.1712 36.0525 48.8212 36.3625 48.5112 36.6726C48.1912 36.9925 47.8312 37.4625 47.4812 38.2025L46.6812 38.2326C45.9412 38.2626 45.8512 38.2425 45.4712 37.9826C45.2412 37.8326 44.8812 37.5425 44.6712 37.3526C44.4512 37.1525 44.1412 36.7725 43.9712 36.5025C43.7912 36.2225 43.5812 35.7725 43.4912 35.5025C43.4012 35.2225 43.1912 34.3526 43.0212 33.5525C42.8512 32.7525 42.6112 31.6125 42.4812 31.0025C42.3512 30.3925 42.2012 29.7225 42.1412 29.5025C42.0812 29.2825 42.0112 29.0926 41.9812 29.0725C41.9512 29.0625 41.7412 29.2226 41.5112 29.4326C41.2712 29.6426 40.9012 29.9226 40.6812 30.0625C40.4612 30.2125 40.0312 30.4525 39.7312 30.6025C39.4312 30.7525 38.7712 31.0126 38.2812 31.1726C37.7912 31.3326 37.1312 31.5125 36.8312 31.5625C36.5312 31.6125 35.6912 31.7225 34.9812 31.8025C34.2712 31.8825 33.5612 31.9725 33.4112 32.0025C33.2112 32.0425 33.0712 32.1625 32.9412 32.4226C32.8412 32.6325 32.6412 32.8925 32.5112 33.0126C32.3912 33.1226 32.0812 33.3225 31.8312 33.4525C31.5312 33.6026 31.2012 33.6826 30.8312 33.6826C30.5312 33.6826 29.5212 33.5425 28.5812 33.3726C27.6412 33.1926 26.4712 32.9426 25.9812 32.8125C25.4912 32.6726 24.8112 32.4725 24.4812 32.3525C24.1512 32.2325 23.5412 31.9726 23.1312 31.7826C22.7212 31.5926 22.0712 31.2225 21.6812 30.9725C21.3012 30.7125 20.7812 30.2926 20.5312 30.0326C20.2812 29.7726 20.0212 29.5625 19.9612 29.5525C19.8812 29.5525 19.7912 29.7826 19.7312 30.1225C19.6712 30.4426 19.5412 31.0625 19.4312 31.5025C19.3312 31.9425 19.1712 32.6625 19.0912 33.1026C19.0112 33.5425 18.8312 34.3326 18.7012 34.8526C18.5712 35.3725 18.3312 36.0525 18.1612 36.3526C17.9912 36.6525 17.5912 37.1425 17.2712 37.4425C16.9412 37.7325 16.4612 38.0826 16.1812 38.2126C15.9112 38.3425 15.6512 38.5126 15.6112 38.5826C15.5712 38.6426 15.5312 43.5625 15.5312 49.5025C15.5312 58.8725 15.5112 60.3726 15.3812 60.8026C15.2912 61.0726 15.1212 61.4626 14.9912 61.6526C14.8712 61.8426 14.6112 62.1525 14.4212 62.3326C14.2312 62.5126 13.9212 62.7425 13.7312 62.8425C13.5412 62.9425 13.0912 63.1026 12.7312 63.1826C12.2712 63.2925 11.9612 63.3126 11.6812 63.2526C11.4612 63.2126 11.1212 63.1226 10.9312 63.0625C10.7412 63.0025 10.3712 62.8125 10.1112 62.6325C9.86122 62.4526 9.51122 62.1226 9.33122 61.9026C9.16122 61.6826 8.92122 61.2526 8.58122 60.4026L8.53122 37.2525L8.07122 36.7725C7.82122 36.5126 7.47122 36.0525 7.29122 35.7525C7.11122 35.4525 6.90122 34.9725 6.82122 34.7025C6.74122 34.4125 6.69122 33.8526 6.70122 33.3526C6.71122 32.8825 6.79122 32.1925 6.87122 31.8025C6.96122 31.4125 7.14122 30.5825 7.27122 29.9525C7.41122 29.3225 7.66122 28.1725 7.82122 27.4025C7.98122 26.6325 8.26122 25.3525 8.43122 24.5525C8.61122 23.7525 8.86122 22.6125 8.98122 22.0025C9.11122 21.3925 9.33122 20.3425 9.47122 19.6525C9.62122 18.9625 9.83122 18.0825 9.94122 17.7025C10.0612 17.3125 10.3012 16.7725 10.4812 16.5025C10.6712 16.2225 10.9512 15.8625 11.1112 15.7025C11.2612 15.5325 11.4812 15.3325 11.5912 15.2525C11.6912 15.1625 12.0112 14.9725 12.2812 14.8125C12.5612 14.6525 13.1612 14.4025 13.6312 14.2425C14.3312 14.0125 14.6612 13.9625 15.5312 13.9625ZM53.4312 54.9526V57.4326C53.4312 58.8926 53.3812 60.1626 53.3112 60.5526C53.2312 60.9926 53.0812 61.3526 52.8612 61.6826C52.6812 61.9426 52.3812 62.2826 52.2112 62.4526C52.0312 62.6126 51.5412 62.8725 51.1312 63.0225C50.7112 63.1725 50.1812 63.2925 49.9312 63.2925C49.6812 63.2825 49.1712 63.1726 48.7912 63.0425C48.2612 62.8625 47.9712 62.6826 47.5612 62.2826C47.2712 61.9925 46.9412 61.5625 46.8412 61.3326C46.7412 61.0926 46.6012 60.7226 46.5412 60.5026C46.4812 60.2726 46.4212 59.0525 46.4112 57.5925C46.4012 56.2125 46.4312 55.0525 46.4812 55.0225C46.5312 54.9825 48.1112 54.9526 53.4312 54.9526Z" fill="#5B3C24"/>
</svg>
