<svg width="65" height="64" viewBox="0 0 65 64" fill="none" xmlns="http://www.w3.org/2000/svg">
<path fill-rule="evenodd" clip-rule="evenodd" d="M4.55246 12.7085C6.19818 8.36566 7.88961 4.43424 8.30103 4.02281C8.89532 3.33709 9.85532 3.19995 18.4953 3.19995L18.2667 4.43424C18.2051 4.76281 18.0144 5.76483 17.6157 7.85885C17.127 10.4262 16.3257 14.6352 15.0667 21.2571L8.30103 21.3942C4.04961 21.44 1.58103 21.3028 1.58103 21.0285C1.58103 20.8 2.90675 17.0057 4.55246 12.7085ZM18.9525 12.8C19.2352 11.2866 19.5058 9.81554 19.7423 8.52992L19.7423 8.52977C20.1559 6.28155 20.4652 4.60038 20.5525 4.25138C20.781 3.24567 20.9639 3.19995 31.0667 3.19995L31.3867 8.54852C31.5696 11.52 31.5696 15.6342 31.0667 21.4857H24.301C19.2267 21.4857 17.581 21.3485 17.581 20.9371C17.581 20.6171 18.221 16.96 18.9525 12.8ZM33.9468 7.90852C33.8096 10.4685 33.8553 14.5828 33.9925 17.0514L34.2667 21.4857C44.3696 21.4857 47.2953 21.44 47.2953 21.3942C47.2953 21.3028 46.701 17.7371 45.9239 13.4857C45.4687 10.9957 45.0449 8.5685 44.7444 6.84686L44.7441 6.84512C44.5316 5.62808 44.3807 4.76393 44.3239 4.47995L44.0953 3.19995H34.1753L33.9468 7.90852ZM48.1639 13.2571C47.4325 9.14281 46.701 5.16567 46.5639 4.47995L46.2896 3.24567L50.3125 3.19995C53.6496 3.19995 54.5182 3.33709 55.1125 4.02281C55.4782 4.43424 57.4896 8.45709 59.5467 12.9371C61.6039 17.4171 63.2953 21.1657 63.2953 21.3028C63.2953 21.3942 60.1867 21.5314 56.4382 21.5314C52.6439 21.5314 49.5353 21.3485 49.5353 21.1657C49.5178 21.0782 49.42 20.5089 49.265 19.6063C49.0148 18.1499 48.6155 15.8255 48.1639 13.2571ZM0.666748 24C0.666748 24.3657 0.941034 25.2342 1.26103 25.92C1.62675 26.6514 2.49532 27.7485 3.22675 28.3885C3.95818 29.0285 5.42103 29.7142 6.60961 29.8971C8.30103 30.1714 9.03246 30.0342 10.7239 29.1657C11.821 28.5714 13.2382 27.3828 13.7867 26.5142C14.381 25.6457 14.8382 24.5485 14.8382 24.0914C14.8382 23.4057 14.1982 23.3142 7.75246 23.3142C1.76389 23.3142 0.666748 23.4057 0.666748 24ZM18.1296 28.5257C16.8953 27.6114 16.6667 27.1542 16.6667 25.6V23.7714H23.981C29.4667 23.7714 31.2953 23.9085 31.341 24.32C31.341 24.64 31.341 25.3257 31.2953 25.8285C31.2496 26.3314 30.8382 27.1085 30.4267 27.6114C30.0153 28.0685 28.9639 28.8 28.0953 29.2571C27.181 29.7142 25.8553 30.2171 25.1239 30.3542C24.3467 30.5371 22.7925 30.4457 21.6953 30.1714C20.5525 29.8514 18.9525 29.12 18.1296 28.5257ZM34.1296 25.4628C34.221 26.88 34.5868 27.3828 36.2325 28.5714C37.8782 29.7142 38.6553 29.9428 40.8039 29.9428C42.4953 29.9428 44.0039 29.6228 45.1925 29.0285C46.1525 28.5257 47.2496 27.7028 47.6153 27.2C47.9353 26.6971 48.1182 25.7371 47.981 25.0057L47.7525 23.7714H33.9468L34.1296 25.4628ZM51.1353 27.2C50.861 26.6971 50.4496 25.7371 50.2667 25.0057L49.9468 23.7714H57.0782C62.4725 23.7714 64.2553 23.9085 64.2553 24.32C64.2553 24.64 63.7982 25.6 63.2039 26.4685C62.6553 27.3371 61.6496 28.4342 61.0553 28.8914C60.4153 29.3485 59.0896 29.8514 58.0839 30.0342C56.6667 30.2171 55.7067 30.0342 53.9696 29.2114C52.7353 28.6171 51.4553 27.7028 51.1353 27.2ZM31.4782 29.2571C30.7467 30.0342 29.3296 31.04 28.3239 31.5428C27.181 32.0914 25.5353 32.4114 23.8896 32.4114C22.4267 32.4114 20.5982 32.1371 19.7753 31.8171C18.9525 31.4971 17.5353 30.5828 16.5753 29.76L14.8382 28.2971C13.101 30.08 11.8667 30.9028 10.9525 31.2685C10.0839 31.68 8.43818 31.9542 7.29532 31.9542H5.23818V58.0114L7.93532 60.9828C52.5982 61.2114 56.2096 61.12 57.3525 60.5257C58.1296 60.16 59.0439 59.1542 59.4096 58.24C60.0039 56.96 60.0953 54.2628 60.0953 44.0685V31.4971C56.4839 32 55.1582 31.8171 53.9239 31.36C52.9182 30.9485 51.5925 30.1257 50.9525 29.4857C50.3582 28.8 49.5353 28.2971 49.1696 28.2971C48.8039 28.2971 47.981 28.9371 47.341 29.7142C46.6096 30.5371 45.2839 31.36 43.8667 31.8171C42.3582 32.2742 40.9867 32.4114 39.7525 32.1828C38.7467 32.0457 37.0553 31.4057 36.0039 30.7657C34.9525 30.1714 33.7639 29.2571 33.4439 28.8C32.8496 27.8857 32.8039 27.9314 31.4782 29.2571ZM14.8382 47.3143V58.9714C16.4382 59.3371 18.7239 59.4286 21.0096 59.4286C23.2953 59.4286 26.221 59.2457 27.5467 59.0629L29.9239 58.7429V35.6571H14.8382V47.3143ZM37.9239 35.9314C37.741 36.1143 37.5582 38.9943 37.6039 42.3771C37.6953 47.3143 37.8325 48.5029 38.381 48.6857C38.7467 48.8229 41.3982 48.9143 44.2325 48.9143C47.021 48.9143 49.6268 48.7314 49.9468 48.5486C50.3582 48.32 50.4496 46.6286 50.4039 42.0571L50.2667 35.8857C41.0325 35.7029 38.1525 35.7943 37.9239 35.9314Z" fill="#5B3C24"/>
</svg>
