<svg width="72" height="49" viewBox="0 0 72 49" fill="none" xmlns="http://www.w3.org/2000/svg">
<path fill-rule="evenodd" clip-rule="evenodd" d="M66.9955 0.709174C66.7533 0.819266 66.423 1.05046 66.2579 1.22661C66.1037 1.40275 65.7404 2.0633 65.4762 2.70183C65.201 3.34037 64.8817 4.25413 64.7606 4.73853C64.6285 5.22294 64.4854 6.00459 64.4193 6.46697C64.3533 6.94037 64.2982 7.53486 64.2982 7.78807C64.2872 8.09633 64.3643 8.37156 64.5184 8.55871C64.6725 8.7789 64.8377 8.86697 65.1019 8.86697C65.3221 8.87798 65.5313 8.78991 65.6744 8.63578C65.8505 8.44862 65.9056 8.1844 65.9716 7.2266C66.0157 6.48899 66.1148 5.88349 66.2469 5.57523C66.401 5.20092 66.5551 5.03578 66.9404 4.84862C67.2157 4.71651 67.7331 4.33119 68.0964 4.00092C68.4597 3.65963 68.8891 3.1422 69.0652 2.82294C69.2303 2.51468 69.3625 2.07431 69.3735 1.84312C69.3735 1.62294 69.3294 1.30367 69.2634 1.12752C69.1973 0.962385 68.9881 0.753211 68.812 0.665138C68.6358 0.577064 68.2505 0.5 67.9533 0.5C67.667 0.5 67.2377 0.599083 66.9955 0.709174ZM55.1716 10.4633C54.9845 10.6725 54.7863 11.0358 54.7203 11.267C54.6652 11.4872 54.5661 14.0523 54.5001 16.9587C54.434 19.8651 54.368 26.0633 54.357 30.7422C54.3459 35.9826 54.2909 39.2303 54.2359 39.2193C54.1698 39.2083 53.8725 37.9312 53.5533 36.3899C53.3913 35.5801 53.1868 34.5728 52.9941 33.6234L52.9926 33.616L52.9894 33.6004L52.9889 33.5979L52.9888 33.5974C52.8166 32.7495 52.6542 31.9497 52.5404 31.3807C52.4355 30.879 52.3023 30.2319 52.1626 29.5535L52.1623 29.5521C51.965 28.5934 51.7548 27.5725 51.5937 26.8119C51.3294 25.5128 50.779 22.9587 50.3826 21.1422C49.9863 19.3257 49.4689 16.9697 49.2157 15.9128C48.9735 14.856 48.6212 13.4908 48.434 12.8853C48.2248 12.2028 47.9496 11.5642 47.6964 11.2009C47.4762 10.8706 47.179 10.5404 47.0469 10.4523C46.9037 10.3642 46.6615 10.2982 46.5074 10.2982C46.3423 10.2982 46.1001 10.4303 45.9019 10.6284L45.5826 10.9587C45.5826 44.0633 45.6047 47.8174 45.7148 47.9716C45.7918 48.0706 45.99 48.1807 46.1661 48.2138C46.3863 48.2688 46.5294 48.2138 46.7386 48.0046L47.0138 47.7294C47.0138 20.2064 47.0469 13.4798 47.1129 13.5459C47.168 13.6119 47.4102 14.4927 47.6634 15.5275C47.9056 16.5624 48.3019 18.2908 48.5441 19.3807C48.7863 20.4706 49.1826 22.2761 49.4248 23.3991C49.667 24.522 50.0414 26.2725 50.2505 27.3073C50.3514 27.8064 50.4804 28.4258 50.6068 29.0322L50.6069 29.0327L50.6075 29.0355L50.6076 29.0363L50.6079 29.0377C50.7432 29.6868 50.8752 30.3205 50.9661 30.7752C51.1533 31.656 51.9129 35.4431 52.6615 39.1972C53.6083 43.8872 54.1037 46.1771 54.2799 46.5183C54.412 46.7936 54.6322 47.1239 54.7643 47.267C54.9184 47.4321 55.1166 47.5092 55.3588 47.5092C55.612 47.5092 55.7771 47.4211 55.9423 47.2119C56.1625 46.9257 56.1735 46.8156 56.1074 45.5826C56.0634 44.856 55.9863 43.8431 55.9313 43.3257C55.8762 42.8083 55.7881 39.7917 55.7551 36.6101C55.7111 33.4284 55.7331 26.9771 55.8102 22.2431C55.8762 17.5202 55.9643 13.2046 55.9863 12.6651C56.0414 11.7624 56.0744 11.6413 56.3716 11.322C56.6248 11.0358 56.6909 10.8927 56.6358 10.6615C56.6028 10.4853 56.4927 10.2872 56.3937 10.2101C56.2946 10.133 56.0524 10.078 55.8542 10.078C55.601 10.078 55.4248 10.1771 55.1716 10.4633ZM7.38081 10.6945C8.99916 10.7385 9.73677 10.7165 10.3533 10.5954C10.8047 10.5073 11.3111 10.4303 11.4872 10.4193C11.6524 10.4193 11.9386 10.4853 12.1148 10.5734C12.3019 10.6615 12.5001 10.8486 12.5661 10.9917C12.6432 11.1239 12.6982 11.4101 12.6872 11.6193C12.6872 11.8284 12.4891 12.478 12.2469 13.0505C12.0047 13.6229 11.6303 14.7679 11.4102 15.5826C11.2443 16.1964 11.0034 17.0977 10.8052 17.8392L10.8051 17.8397L10.6285 18.5L10.5051 18.9618L10.5049 18.9623L10.5048 18.9626C10.2949 19.7485 10.0133 20.8023 9.81383 21.5275C9.70749 21.9327 9.56386 22.4706 9.41512 23.0277C9.2405 23.6817 9.05883 24.3622 8.92209 24.8853C8.79802 25.3601 8.65015 25.9167 8.51217 26.4362C8.36856 26.9768 8.23567 27.4771 8.15145 27.8028C8.05046 28.1688 7.88072 28.8063 7.69617 29.4994L7.69608 29.4997L7.69587 29.5005L7.69572 29.5011C7.5585 30.0164 7.41311 30.5624 7.28172 31.0505C6.97347 32.1954 6.37897 34.4523 5.96062 36.0596C5.53127 37.667 4.98081 39.7257 4.73861 40.6284C4.59569 41.1676 4.39527 41.9061 4.20521 42.6065L4.20514 42.6068C4.07313 43.0932 3.94613 43.5612 3.84686 43.9312C3.59365 44.845 3.36246 45.8688 3.32943 46.2101C3.25237 46.8266 3.25237 46.8376 3.58264 46.9587C3.83585 47.0468 4.32026 47.0358 5.56429 46.9037C6.47806 46.8046 8.2065 46.6064 9.4175 46.4633C10.8817 46.2872 11.6854 46.2321 11.8175 46.3092C11.9166 46.3642 12.0597 46.5183 12.1258 46.6615C12.1918 46.7936 12.2138 47.0138 12.1808 47.1569C12.1478 47.289 12.0267 47.4431 11.9276 47.4982C11.8175 47.5532 10.9368 47.6963 9.96796 47.8284C8.99916 47.9605 7.23769 48.1587 6.05971 48.2798C4.2542 48.456 3.82484 48.478 3.35145 48.3569C3.03218 48.2908 2.64686 48.1037 2.48173 47.9495C2.31659 47.7954 2.10741 47.5092 2.03035 47.322C1.94228 47.1239 1.87622 46.6945 1.87622 46.3862C1.87622 46.067 2.05237 45.1532 2.26154 44.3716C2.4269 43.7845 2.66056 42.9057 2.85527 42.1733L2.85531 42.1732L2.85575 42.1715C2.92012 41.9294 2.98023 41.7033 3.03218 41.5092L3.15545 41.0481C3.36549 40.262 3.64729 39.2074 3.84686 38.4817C4.07806 37.6009 4.47439 36.0927 4.73861 35.1239C4.86256 34.6496 5.01026 34.0936 5.14812 33.5746L5.14842 33.5734L5.14854 33.573L5.14861 33.5727L5.14911 33.5708C5.2925 33.031 5.42514 32.5316 5.50925 32.2064C5.61019 31.8405 5.77984 31.2034 5.96431 30.5106L5.96441 30.5102L5.96454 30.5097L5.96456 30.5096L5.96461 30.5094L5.96468 30.5092L5.96507 30.5077C6.10227 29.9925 6.24762 29.4466 6.37897 28.9587C6.68723 27.8138 7.21567 25.8321 7.54595 24.555C7.7797 23.6804 8.06509 22.6146 8.28894 21.7787L8.29035 21.7734L8.29161 21.7687L8.29267 21.7647L8.29338 21.7621L8.54778 20.8119C8.67293 20.3442 8.85326 19.6598 9.02982 18.9897L9.03002 18.9889C9.14848 18.5393 9.26523 18.0962 9.36246 17.7294C9.60466 16.8266 9.93494 15.5826 10.0891 14.9771C10.2432 14.3716 10.5514 13.4578 10.7496 12.9404C10.9588 12.4229 11.1129 11.9936 11.1019 11.9716C11.0799 11.9605 10.6285 12.0046 10.0781 12.0706C9.45053 12.1477 8.39365 12.1697 7.21567 12.1367C6.19182 12.0927 5.02484 12.0156 4.62851 11.9605C4.08906 11.8725 3.85787 11.7844 3.71475 11.5972C3.60466 11.4541 3.51659 11.256 3.5276 11.1569C3.5276 11.0468 3.63769 10.8486 3.78081 10.7165C3.98998 10.5183 4.10007 10.4963 4.62851 10.5624C4.95879 10.5954 6.20283 10.6615 7.38081 10.6945ZM19.8212 10.5514C19.612 10.6284 19.2597 10.7936 19.0505 10.9257C18.8303 11.0468 18.5551 11.355 18.423 11.6303L18.1698 12.1147C18.1698 41.333 18.2028 47.4872 18.2799 47.6523C18.3459 47.7844 18.5001 47.9605 18.6432 48.0376C18.8083 48.1477 19.0946 48.1697 19.601 48.1257C19.9973 48.0927 20.9111 48.0266 21.6377 47.9936C22.6395 47.9495 23.1459 47.9716 23.7294 48.1037C24.1588 48.2028 24.7863 48.3459 25.1276 48.4229C25.7111 48.544 25.7771 48.533 26.0634 48.3238C26.2505 48.1807 26.3826 47.9716 26.4047 47.7734C26.4267 47.5752 26.3606 47.3771 26.2395 47.256C26.1294 47.1459 25.8982 47.0578 25.7111 47.0688C25.5349 47.0688 25.0065 46.9587 24.5551 46.8156C23.8505 46.6174 23.4652 46.5734 22.023 46.5734C21.0872 46.5734 20.1514 46.6064 19.9643 46.6505L19.601 46.7385L19.656 24.445L24.0487 24.3349C24.368 23.7624 24.368 23.6963 24.2248 23.4321L24.0487 23.1239L19.601 23.0688C19.59 12.3569 19.59 12.3349 19.8322 12.1147C20.0524 11.9055 20.2615 11.8945 23.0909 11.8394C25.9533 11.7844 26.1184 11.7734 26.2726 11.5642C26.3606 11.4431 26.4267 11.2339 26.4267 11.0908C26.4267 10.9587 26.3276 10.7495 26.2065 10.6284C25.9973 10.4193 25.8432 10.4083 23.1019 10.4083C21.0872 10.4193 20.0854 10.4633 19.8212 10.5514ZM32.8781 11.344C33.0102 11.1018 33.2744 10.7936 33.4836 10.6505C33.7808 10.4523 33.979 10.4083 34.4083 10.4413C34.7937 10.4633 35.1019 10.5734 35.4542 10.8156C35.7404 11.0028 36.1918 11.4982 36.5111 11.9605C36.8193 12.4119 37.2047 13.0174 37.3588 13.3257C37.5019 13.6229 37.8542 14.4156 38.1294 15.0872C38.4047 15.7477 38.801 16.8927 39.0102 17.6193C39.2303 18.3459 39.4615 19.2817 39.5276 19.711C39.6267 20.2505 39.6487 21.3624 39.6047 23.4541C39.5716 25.3697 39.4836 26.8119 39.3735 27.4945C39.2744 28.089 39.0982 29.0358 38.9661 29.5862C38.845 30.1477 38.5808 31.0505 38.3716 31.6009C38.1735 32.1404 37.8212 32.911 37.601 33.3073C37.3808 33.7037 36.9955 34.2872 36.7423 34.6174C36.4891 34.9477 36.0377 35.4101 35.212 36.1147L36.6102 39.6376C37.3698 41.5752 38.3716 44.0743 38.823 45.1972C39.2744 46.3202 39.6377 47.355 39.6377 47.5092C39.6377 47.6633 39.5496 47.8725 39.4395 47.9826C39.3404 48.0927 39.1203 48.1807 38.9551 48.1697C38.779 48.1697 38.5808 48.1037 38.5148 48.0266C38.4377 47.9495 37.5349 45.7807 36.5111 43.2156C35.4872 40.6394 34.5514 38.2945 34.4193 38.0083C34.2982 37.722 34.1551 37.4798 34.1111 37.4908C34.056 37.4908 34.012 39.8248 34.001 42.6761C33.968 47.7183 33.957 47.8615 33.7478 48.0156C33.6267 48.1037 33.3955 48.1697 33.2303 48.1697C33.0322 48.1697 32.856 48.0816 32.757 47.9275C32.6138 47.7073 32.6028 45.4505 32.6469 11.7844L32.8781 11.344ZM66.1148 10.6174C65.8725 10.7275 65.4652 11.0468 65.212 11.322C64.9478 11.6083 64.6175 12.0706 64.4744 12.3569C64.3313 12.6541 64.1111 13.3037 63.99 13.8211C63.8689 14.3385 63.6817 15.1752 63.5826 15.6927C63.4946 16.2101 63.2634 17.6193 63.0872 18.8303L63.0628 19.0092L63.0628 19.0094L63.0626 19.0111L63.0625 19.0114C62.8998 20.2042 62.6866 21.7672 62.6028 22.5734C62.5078 23.386 62.3724 24.8763 62.2741 25.9584L62.274 25.9595L62.2615 26.0963C62.1735 27.1862 62.0414 28.8927 61.9863 29.8945C61.9313 30.8963 61.8762 33.2743 61.8762 35.1789C61.8762 37.0835 61.9313 39.2413 61.9863 39.9679C62.0524 40.6945 62.1735 41.7624 62.2725 42.3349C62.3606 42.9073 62.5368 43.722 62.6469 44.1514C62.757 44.5807 63.0212 45.2963 63.2303 45.7477C63.4395 46.1991 63.8248 46.8376 64.0891 47.1679C64.3973 47.5312 64.7826 47.8505 65.1239 48.0156C65.4322 48.1697 65.8946 48.2908 66.1698 48.2908C66.445 48.3018 66.8414 48.2688 67.0505 48.2248C67.2597 48.1807 67.634 48.0266 67.8762 47.8945C68.1184 47.7514 68.5478 47.3991 68.823 47.1018C69.0982 46.8156 69.4505 46.3532 69.6157 46.078C69.7698 45.8027 70.001 45.3073 70.1221 44.9771C70.2322 44.6468 70.3863 43.7991 70.4524 43.1055C70.5184 42.4119 70.6285 40.6284 70.6946 39.1422C70.7606 37.656 70.8267 33.6486 70.8267 30.2248C70.8267 26.6688 70.7716 22.9917 70.7056 21.6376C70.6285 20.3385 70.5184 18.7202 70.4524 18.0596C70.3973 17.3881 70.2652 16.2982 70.1771 15.6376C70.0891 14.9661 69.9129 14.0633 69.7918 13.6229C69.6817 13.1936 69.4615 12.5991 69.3184 12.3018C69.1753 12.0156 68.8781 11.5862 68.6799 11.344C68.4707 11.1018 68.0854 10.7936 67.8102 10.6615C67.5459 10.5183 67.1496 10.4083 66.9404 10.4083C66.7313 10.4083 66.3569 10.5073 66.1148 10.6174ZM66.4229 12.1036C66.2578 12.2468 65.9826 12.5991 65.8174 12.8963C65.6523 13.1936 65.4211 13.8541 65.3 14.3715C65.1789 14.889 64.9587 16.078 64.8046 17.0137C64.6505 17.9495 64.4743 19.0394 64.4193 19.4358C64.3532 19.8321 64.2101 21.0211 64.089 22.078C63.9679 23.1348 63.7587 25.1715 63.6266 26.5917C63.4504 28.5734 63.3844 30.3238 63.3404 34.0229C63.2853 38.1403 63.3073 39.1202 63.4725 40.5734C63.5715 41.5092 63.8027 42.8413 63.9789 43.5238C64.155 44.1954 64.4193 45.0101 64.5734 45.3073C64.7275 45.6156 65.0137 46.0339 65.2119 46.2651C65.3991 46.4853 65.7293 46.7275 65.9275 46.8156C66.1807 46.9147 66.3899 46.9257 66.6982 46.8596C66.9183 46.7936 67.3257 46.5624 67.6009 46.3202C67.8761 46.089 68.2505 45.6046 68.4486 45.2413C68.6358 44.889 68.8449 44.3715 68.911 44.0963C68.966 43.8211 69.0651 42.8633 69.1312 41.9495C69.1972 41.0468 69.3073 38.0192 69.3734 35.2339C69.4615 31.5128 69.4615 28.9147 69.3734 25.4358C69.3073 22.8376 69.1972 20.0303 69.1312 19.2156C69.0761 18.4009 68.944 17.1348 68.856 16.4082C68.7679 15.6816 68.6138 14.7458 68.5147 14.3165C68.4266 13.8981 68.1954 13.2486 67.9972 12.8963C67.8101 12.544 67.5349 12.1587 67.3807 12.0376C67.2266 11.9275 67.0284 11.8284 66.9183 11.8394C66.8193 11.8394 66.5991 11.9605 66.4229 12.1036ZM34.122 12.0486C34.0339 12.2027 34.0009 15.4504 34.0119 23.6633C34.0229 31.1936 34.056 35.0688 34.133 35.0688C34.1881 35.0688 34.4523 34.9036 34.7165 34.6945C34.9697 34.4963 35.3771 34.0559 35.6303 33.7367C35.8835 33.4064 36.3238 32.6688 36.6101 32.0963C36.9514 31.4027 37.2596 30.566 37.5018 29.6192C37.711 28.7936 37.9312 27.5055 38.0303 26.5697C38.1293 25.6339 38.2064 23.9605 38.2064 22.6614C38.2064 21.0651 38.1514 20.1073 38.0413 19.4908C37.9422 19.0064 37.6449 17.9385 37.3697 17.1238C37.0945 16.3092 36.5881 15.0431 36.2248 14.3165C35.8615 13.5569 35.366 12.7532 35.0798 12.4229C34.8046 12.1036 34.4963 11.8394 34.4082 11.8394C34.3202 11.8394 34.1991 11.9385 34.122 12.0486Z" fill="black"/>
</svg>
