<svg width="74" height="62" viewBox="0 0 74 62" fill="none" xmlns="http://www.w3.org/2000/svg">
<path fill-rule="evenodd" clip-rule="evenodd" d="M67.644 0.208686C67.4018 0.318778 67.0716 0.54997 66.9064 0.726117C66.7523 0.902264 66.389 1.56281 66.1248 2.20135C65.8495 2.83988 65.5303 3.75364 65.4092 4.23804C65.2771 4.72245 65.1339 5.5041 65.0679 5.96648C65.0018 6.43988 64.9468 7.03437 64.9468 7.28758C64.9358 7.59584 65.0129 7.87107 65.167 8.05823C65.3211 8.27841 65.4862 8.36648 65.7505 8.36648C65.9706 8.37749 66.1798 8.28942 66.3229 8.13529C66.4991 7.94814 66.5541 7.68391 66.6202 6.72612C66.6642 5.9885 66.7633 5.383 66.8954 5.07474C67.0496 4.70043 67.2037 4.53529 67.589 4.34814C67.8642 4.21603 68.3817 3.8307 68.745 3.50043C69.1083 3.15914 69.5376 2.64171 69.7138 2.32245C69.8789 2.01419 70.011 1.57382 70.022 1.34263C70.022 1.12245 69.978 0.803181 69.9119 0.627035C69.8459 0.461897 69.6367 0.252723 69.4606 0.164649C69.2844 0.0765759 68.8991 -0.000488281 68.6018 -0.000488281C68.3156 -0.000488281 67.8862 0.0985943 67.644 0.208686ZM55.8202 9.96281C55.633 10.172 55.4349 10.5353 55.3688 10.7665C55.3138 10.9867 55.2147 13.5518 55.1486 16.4582C55.0826 19.3646 55.0165 25.5628 55.0055 30.2417C54.9945 35.4821 54.9395 38.7298 54.8844 38.7188C54.8184 38.7078 54.5211 37.4307 54.2018 35.8894C54.0399 35.0796 53.8354 34.0723 53.6426 33.1229L53.6411 33.1155L53.6379 33.0999L53.6374 33.0974L53.6374 33.097C53.4652 32.249 53.3028 31.4492 53.189 30.8802C53.0841 30.3786 52.9509 29.7314 52.8112 29.053L52.8109 29.0516C52.6135 28.0929 52.4033 27.072 52.2422 26.3114C51.978 25.0124 51.4275 22.4582 51.0312 20.6417C50.6349 18.8252 50.1174 16.4692 49.8642 15.4124C49.622 14.3555 49.2697 12.9903 49.0826 12.3848C48.8734 11.7023 48.5982 11.0637 48.345 10.7004C48.1248 10.3702 47.8275 10.0399 47.6954 9.95181C47.5523 9.86373 47.3101 9.79768 47.156 9.79768C46.9908 9.79768 46.7486 9.92979 46.5505 10.128L46.2312 10.4582C46.2312 43.5628 46.2532 47.3169 46.3633 47.4711C46.4404 47.5702 46.6385 47.6802 46.8147 47.7133C47.0349 47.7683 47.178 47.7133 47.3872 47.5041L47.6624 47.2289C47.6624 19.7059 47.6954 12.9793 47.7615 13.0454C47.8165 13.1114 48.0587 13.9922 48.3119 15.027C48.5541 16.0619 48.9505 17.7903 49.1927 18.8802C49.4349 19.9702 49.8312 21.7757 50.0734 22.8986C50.3156 24.0215 50.6899 25.772 50.8991 26.8069C51 27.3059 51.129 27.9253 51.2553 28.5317L51.2554 28.5322L51.256 28.535L51.2562 28.5358L51.2565 28.5372C51.3917 29.1863 51.5237 29.82 51.6147 30.2747C51.8018 31.1555 52.5615 34.9426 53.3101 38.6968C54.2569 43.3867 54.7523 45.6766 54.9284 46.0179C55.0606 46.2931 55.2807 46.6234 55.4128 46.7665C55.567 46.9316 55.7651 47.0087 56.0073 47.0087C56.2606 47.0087 56.4257 46.9206 56.5908 46.7114C56.811 46.4252 56.822 46.3151 56.756 45.0821C56.7119 44.3555 56.6349 43.3426 56.5798 42.8252C56.5248 42.3078 56.4367 39.2913 56.4037 36.1096C56.3596 32.928 56.3817 26.4766 56.4587 21.7426C56.5248 17.0197 56.6129 12.7041 56.6349 12.1646C56.6899 11.2619 56.7229 11.1408 57.0202 10.8215C57.2734 10.5353 57.3395 10.3922 57.2844 10.161C57.2514 9.98483 57.1413 9.78667 57.0422 9.7096C56.9431 9.63254 56.7009 9.57749 56.5028 9.57749C56.2495 9.57749 56.0734 9.67658 55.8202 9.96281ZM8.02937 10.194C9.64772 10.238 10.3853 10.216 11.0018 10.0949C11.4532 10.0069 11.9596 9.92979 12.1358 9.91878C12.3009 9.91878 12.5872 9.98483 12.7633 10.0729C12.9505 10.161 13.1486 10.3481 13.2147 10.4913C13.2918 10.6234 13.3468 10.9096 13.3358 11.1188C13.3358 11.328 13.1376 11.9775 12.8954 12.55C12.6532 13.1224 12.2789 14.2674 12.0587 15.0821C11.8928 15.6959 11.6519 16.5972 11.4538 17.3387L11.4536 17.3392L11.2771 17.9995L11.1536 18.4613L11.1535 18.4618L11.1534 18.4621C10.9434 19.248 10.6618 20.3018 10.4624 21.027C10.356 21.4322 10.2124 21.9701 10.0637 22.5272C9.88906 23.1812 9.70739 23.8617 9.57065 24.3848C9.44657 24.8596 9.29871 25.4162 9.16073 25.9357C9.01712 26.4763 8.88423 26.9766 8.80001 27.3023C8.69902 27.6683 8.52928 28.3058 8.34473 28.9989L8.34464 28.9992L8.34443 29L8.34428 29.0006C8.20706 29.5159 8.06167 30.062 7.93028 30.55C7.62203 31.6949 7.02753 33.9518 6.60918 35.5591C6.17983 37.1665 5.62937 39.2252 5.38717 40.1279C5.24425 40.6671 5.04383 41.4057 4.85377 42.106L4.8537 42.1063C4.72169 42.5927 4.59469 43.0607 4.49542 43.4307C4.24221 44.3445 4.01102 45.3683 3.97799 45.7096C3.90093 46.3261 3.90093 46.3371 4.2312 46.4582C4.48441 46.5463 4.96882 46.5353 6.21285 46.4032C7.12662 46.3041 8.85506 46.1059 10.0661 45.9628C11.5303 45.7867 12.334 45.7316 12.4661 45.8087C12.5651 45.8637 12.7083 46.0179 12.7743 46.161C12.8404 46.2931 12.8624 46.5133 12.8294 46.6564C12.7963 46.7885 12.6752 46.9426 12.5762 46.9977C12.4661 47.0527 11.5853 47.1958 10.6165 47.3279C9.64772 47.4601 7.88625 47.6582 6.70827 47.7793C4.90276 47.9555 4.4734 47.9775 4.00001 47.8564C3.68074 47.7903 3.29542 47.6032 3.13028 47.4491C2.96515 47.2949 2.75597 47.0087 2.67891 46.8215C2.59084 46.6234 2.52478 46.194 2.52478 45.8857C2.52478 45.5665 2.70093 44.6527 2.9101 43.8711C3.07546 43.284 3.30912 42.4052 3.50383 41.6728L3.50387 41.6727L3.50431 41.671C3.56868 41.4289 3.62879 41.2028 3.68074 41.0087L3.80401 40.5476C4.01405 39.7615 4.29585 38.7069 4.49542 37.9812C4.72661 37.1004 5.12295 35.5922 5.38717 34.6234C5.51112 34.1491 5.65882 33.5931 5.79668 33.0741L5.79698 33.0729L5.7971 33.0725L5.79717 33.0722L5.79767 33.0703C5.94105 32.5305 6.0737 32.0311 6.15781 31.7059C6.25875 31.34 6.4284 30.7029 6.61287 30.0101L6.61297 30.0097L6.6131 30.0092L6.61312 30.0091L6.61317 30.009L6.61324 30.0087L6.61363 30.0072C6.75083 29.492 6.89618 28.9461 7.02753 28.4582C7.33579 27.3133 7.86423 25.3316 8.1945 24.0546C8.42826 23.1799 8.71365 22.1141 8.9375 21.2782L8.93891 21.2729L8.94017 21.2682L8.94123 21.2643L8.94194 21.2616L9.19634 20.3114C9.32149 19.8438 9.50182 19.1593 9.67838 18.4892L9.67858 18.4884C9.79704 18.0388 9.91379 17.5957 10.011 17.2289C10.2532 16.3261 10.5835 15.0821 10.7376 14.4766C10.8918 13.8711 11.2 12.9573 11.3982 12.4399C11.6073 11.9224 11.7615 11.4931 11.7505 11.4711C11.7284 11.4601 11.2771 11.5041 10.7266 11.5702C10.0991 11.6472 9.04221 11.6692 7.86423 11.6362C6.84038 11.5922 5.6734 11.5151 5.27707 11.4601C4.73762 11.372 4.50643 11.2839 4.36331 11.0968C4.25322 10.9536 4.16515 10.7555 4.17616 10.6564C4.17616 10.5463 4.28625 10.3481 4.42937 10.216C4.63854 10.0179 4.74863 9.99584 5.27707 10.0619C5.60735 10.0949 6.85139 10.161 8.02937 10.194ZM20.4697 10.0509C20.2606 10.128 19.9083 10.2931 19.6991 10.4252C19.4789 10.5463 19.2037 10.8546 19.0716 11.1298L18.8184 11.6142C18.8184 40.8325 18.8514 46.9867 18.9284 47.1518C18.9945 47.2839 19.1486 47.4601 19.2918 47.5371C19.4569 47.6472 19.7431 47.6692 20.2495 47.6252C20.6459 47.5922 21.5596 47.5261 22.2862 47.4931C23.2881 47.4491 23.7945 47.4711 24.378 47.6032C24.8073 47.7023 25.4349 47.8454 25.7762 47.9224C26.3596 48.0435 26.4257 48.0325 26.7119 47.8234C26.8991 47.6802 27.0312 47.4711 27.0532 47.2729C27.0752 47.0747 27.0092 46.8766 26.8881 46.7555C26.778 46.6454 26.5468 46.5573 26.3596 46.5683C26.1835 46.5683 25.6551 46.4582 25.2037 46.3151C24.4991 46.1169 24.1138 46.0729 22.6716 46.0729C21.7358 46.0729 20.8 46.1059 20.6129 46.15L20.2495 46.238L20.3046 23.9445L24.6973 23.8344C25.0165 23.2619 25.0165 23.1958 24.8734 22.9316L24.6973 22.6234L20.2495 22.5683C20.2385 11.8564 20.2385 11.8344 20.4807 11.6142C20.7009 11.405 20.9101 11.394 23.7395 11.339C26.6018 11.2839 26.767 11.2729 26.9211 11.0637C27.0092 10.9426 27.0752 10.7335 27.0752 10.5903C27.0752 10.4582 26.9762 10.2491 26.8551 10.128C26.6459 9.91878 26.4918 9.90777 23.7505 9.90777C21.7358 9.91878 20.734 9.96281 20.4697 10.0509ZM33.5266 10.8435C33.6587 10.6013 33.9229 10.2931 34.1321 10.15C34.4294 9.9518 34.6275 9.90777 35.0569 9.9408C35.4422 9.96281 35.7505 10.0729 36.1028 10.3151C36.389 10.5023 36.8404 10.9977 37.1596 11.4601C37.4679 11.9114 37.8532 12.5169 38.0073 12.8252C38.1505 13.1224 38.5028 13.9151 38.778 14.5867C39.0532 15.2472 39.4495 16.3922 39.6587 17.1188C39.8789 17.8454 40.1101 18.7812 40.1762 19.2105C40.2752 19.75 40.2973 20.8619 40.2532 22.9536C40.2202 24.8692 40.1321 26.3114 40.022 26.994C39.9229 27.5885 39.7468 28.5353 39.6147 29.0858C39.4936 29.6472 39.2294 30.55 39.0202 31.1004C38.822 31.6399 38.4697 32.4105 38.2495 32.8069C38.0294 33.2032 37.644 33.7867 37.3908 34.1169C37.1376 34.4472 36.6862 34.9096 35.8606 35.6142L37.2587 39.1371C38.0184 41.0747 39.0202 43.5738 39.4716 44.6968C39.9229 45.8197 40.2862 46.8546 40.2862 47.0087C40.2862 47.1628 40.1982 47.372 40.0881 47.4821C39.989 47.5922 39.7688 47.6802 39.6037 47.6692C39.4275 47.6692 39.2294 47.6032 39.1633 47.5261C39.0862 47.4491 38.1835 45.2802 37.1596 42.7151C36.1358 40.139 35.2 37.794 35.0679 37.5078C34.9468 37.2215 34.8037 36.9793 34.7596 36.9903C34.7046 36.9903 34.6606 39.3243 34.6495 42.1757C34.6165 47.2179 34.6055 47.361 34.3963 47.5151C34.2752 47.6032 34.044 47.6692 33.8789 47.6692C33.6807 47.6692 33.5046 47.5812 33.4055 47.427C33.2624 47.2068 33.2514 44.95 33.2954 11.2839L33.5266 10.8435ZM66.7633 10.1169C66.5211 10.227 66.1138 10.5463 65.8606 10.8215C65.5963 11.1078 65.2661 11.5702 65.1229 11.8564C64.9798 12.1536 64.7596 12.8032 64.6385 13.3206C64.5174 13.838 64.3303 14.6747 64.2312 15.1922C64.1431 15.7096 63.9119 17.1188 63.7358 18.3298L63.7114 18.5087L63.7113 18.509L63.7111 18.5106L63.7111 18.5109C63.5484 19.7038 63.3351 21.2667 63.2514 22.0729C63.1564 22.8855 63.021 24.3758 62.9226 25.4579L62.9225 25.459L62.9101 25.5958C62.822 26.6857 62.6899 28.3922 62.6349 29.394C62.5798 30.3958 62.5248 32.7738 62.5248 34.6784C62.5248 36.583 62.5798 38.7408 62.6349 39.4674C62.7009 40.194 62.822 41.2619 62.9211 41.8344C63.0092 42.4068 63.1853 43.2215 63.2954 43.6509C63.4055 44.0802 63.6697 44.7958 63.8789 45.2472C64.0881 45.6986 64.4734 46.3371 64.7376 46.6674C65.0459 47.0307 65.4312 47.35 65.7725 47.5151C66.0807 47.6692 66.5431 47.7903 66.8184 47.7903C67.0936 47.8013 67.4899 47.7683 67.6991 47.7243C67.9083 47.6802 68.2826 47.5261 68.5248 47.394C68.767 47.2509 69.1963 46.8986 69.4716 46.6013C69.7468 46.3151 70.0991 45.8527 70.2642 45.5775C70.4184 45.3023 70.6496 44.8069 70.7707 44.4766C70.8807 44.1463 71.0349 43.2986 71.1009 42.605C71.167 41.9114 71.2771 40.1279 71.3431 38.6417C71.4092 37.1555 71.4752 33.1481 71.4752 29.7243C71.4752 26.1683 71.4202 22.4913 71.3541 21.1371C71.2771 19.838 71.167 18.2197 71.1009 17.5591C71.0459 16.8876 70.9138 15.7977 70.8257 15.1371C70.7376 14.4656 70.5615 13.5628 70.4404 13.1224C70.3303 12.6931 70.1101 12.0986 69.967 11.8013C69.8239 11.5151 69.5266 11.0857 69.3284 10.8435C69.1193 10.6013 68.734 10.2931 68.4587 10.161C68.1945 10.0179 67.7982 9.90777 67.589 9.90777C67.3798 9.90777 67.0055 10.0069 66.7633 10.1169ZM67.0715 11.6032C66.9063 11.7463 66.6311 12.0986 66.466 12.3958C66.3008 12.6931 66.0696 13.3536 65.9486 13.871C65.8274 14.3885 65.6073 15.5775 65.4531 16.5133C65.299 17.449 65.1229 18.5389 65.0678 18.9353C65.0018 19.3316 64.8586 20.5206 64.7375 21.5775C64.6164 22.6344 64.4073 24.671 64.2752 26.0912C64.099 28.0729 64.033 29.8233 63.9889 33.5224C63.9339 37.6399 63.9559 38.6197 64.121 40.0729C64.2201 41.0087 64.4513 42.3408 64.6274 43.0233C64.8036 43.6949 65.0678 44.5096 65.2219 44.8068C65.3761 45.1151 65.6623 45.5334 65.8605 45.7646C66.0476 45.9848 66.3779 46.227 66.5761 46.3151C66.8293 46.4142 67.0385 46.4252 67.3467 46.3591C67.5669 46.2931 67.9742 46.0619 68.2495 45.8197C68.5247 45.5885 68.899 45.1041 69.0972 44.7408C69.2843 44.3885 69.4935 43.871 69.5596 43.5958C69.6146 43.3206 69.7137 42.3628 69.7797 41.449C69.8458 40.5463 69.9559 37.5188 70.0219 34.7334C70.11 31.0123 70.11 28.4142 70.0219 24.9353C69.9559 22.3371 69.8458 19.5298 69.7797 18.7151C69.7247 17.9004 69.5926 16.6344 69.5045 15.9077C69.4164 15.1811 69.2623 14.2454 69.1632 13.816C69.0751 13.3977 68.844 12.7481 68.6458 12.3958C68.4586 12.0435 68.1834 11.6582 68.0293 11.5371C67.8752 11.427 67.677 11.3279 67.5669 11.3389C67.4678 11.3389 67.2476 11.46 67.0715 11.6032ZM34.7706 11.5481C34.6825 11.7022 34.6495 14.9499 34.6605 23.1628C34.6715 30.6931 34.7045 34.5683 34.7816 34.5683C34.8366 34.5683 35.1008 34.4032 35.3651 34.194C35.6183 33.9958 36.0256 33.5555 36.2788 33.2362C36.532 32.9059 36.9724 32.1683 37.2586 31.5958C37.5999 30.9022 37.9082 30.0655 38.1504 29.1188C38.3596 28.2931 38.5797 27.005 38.6788 26.0692C38.7779 25.1334 38.855 23.46 38.855 22.161C38.855 20.5646 38.7999 19.6068 38.6898 18.9903C38.5908 18.5059 38.2935 17.438 38.0183 16.6233C37.743 15.8087 37.2366 14.5426 36.8733 13.816C36.51 13.0564 36.0146 12.2527 35.7284 11.9224C35.4531 11.6032 35.1449 11.3389 35.0568 11.3389C34.9687 11.3389 34.8476 11.438 34.7706 11.5481Z" fill="white"/>
<path d="M18.7383 58.9297C18.9727 59.0234 19.0898 59.1602 19.0898 59.3398C19.0898 59.5195 18.9375 59.6875 18.6328 59.8438C18.3281 60 17.9492 60.0781 17.5039 60.0781C16.7539 60.0781 16.1484 59.8281 15.6953 59.3242C15.2422 58.8203 15.0156 58.1484 15.0156 57.3125C15.0156 56.4805 15.2422 55.8242 15.6953 55.3398C16.1484 54.8594 16.7617 54.6172 17.5352 54.6172C17.9492 54.6172 18.3008 54.7031 18.582 54.8711C18.8633 55.0391 19.0078 55.2461 19.0078 55.4883C19.0078 55.707 18.8555 55.8398 18.5547 55.8867C18.4531 55.6289 18.293 55.4336 18.0742 55.3008C17.8555 55.1719 17.6211 55.1055 17.3789 55.1055C16.875 55.1055 16.4648 55.3047 16.1484 55.7031C15.8281 56.1016 15.6719 56.6172 15.6719 57.25C15.6719 57.8906 15.832 58.4414 16.1523 58.9023C16.4727 59.3633 16.918 59.5938 17.4961 59.5938C17.7539 59.5938 17.9922 59.5391 18.2148 59.4258C18.4336 59.3164 18.6094 59.1484 18.7383 58.9297ZM24.75 57.3438C24.75 58.1797 24.5273 58.8438 24.082 59.3359C23.6367 59.832 23.0391 60.0781 22.2891 60.0781C21.5391 60.0781 20.9414 59.832 20.5 59.3359C20.0547 58.8438 19.8359 58.1797 19.8359 57.3438C19.8359 56.5156 20.0547 55.8516 20.5 55.3594C20.9414 54.8672 21.5391 54.6172 22.2891 54.6172C23.0391 54.6172 23.6367 54.8672 24.082 55.3594C24.5273 55.8516 24.75 56.5156 24.75 57.3438ZM23.6758 55.8789C23.543 55.6445 23.3555 55.457 23.1172 55.3164C22.875 55.1758 22.6016 55.1055 22.293 55.1055C21.7422 55.1055 21.3047 55.293 20.9805 55.668C20.6523 56.043 20.4922 56.5234 20.4922 57.1055C20.4922 57.7383 20.625 58.3008 20.8945 58.793C21.0273 59.0391 21.2109 59.2344 21.4492 59.3789C21.6836 59.5234 21.9609 59.5938 22.2773 59.5938C22.8516 59.5938 23.2969 59.4023 23.6094 59.0156C23.9219 58.6289 24.0781 58.125 24.0781 57.5078C24.0781 56.8945 23.9414 56.3516 23.6758 55.8789ZM25.7656 59.5664L25.7812 58.1523V56.6094C25.7812 55.8477 25.7422 55.2266 25.668 54.7422C26.2383 54.6953 26.8633 54.6719 27.5469 54.6719C28.2266 54.6719 28.6133 54.7148 28.707 54.793C28.7539 54.8359 28.7812 54.9141 28.7812 55.0234C28.7812 55.1367 28.7578 55.2461 28.7148 55.3516C28.4102 55.2422 27.918 55.1836 27.2305 55.1836C26.9453 55.1836 26.6523 55.1914 26.3477 55.207C26.3672 55.4414 26.3789 55.7617 26.3789 56.1602V56.9844H27.0117C27.4531 56.9844 27.7734 56.9766 27.9727 56.9531C27.9922 56.9961 28.0039 57.0781 28.0039 57.2031C28.0039 57.3281 27.9609 57.4102 27.875 57.4414C27.7891 57.4727 27.5938 57.4883 27.2852 57.4883H26.3789V58.375C26.3789 59.0977 26.4297 59.625 26.5312 59.9609C26.4336 60.0039 26.3086 60.0234 26.1562 60.0234C26 60.0234 25.8984 59.9922 25.8438 59.9219C25.7891 59.8516 25.7656 59.7344 25.7656 59.5664ZM29.4062 59.5664L29.4219 58.1523V56.6094C29.4219 55.8477 29.3828 55.2266 29.3086 54.7422C29.8789 54.6953 30.5039 54.6719 31.1875 54.6719C31.8672 54.6719 32.2539 54.7148 32.3477 54.793C32.3945 54.8359 32.4219 54.9141 32.4219 55.0234C32.4219 55.1367 32.3984 55.2461 32.3555 55.3516C32.0508 55.2422 31.5586 55.1836 30.8711 55.1836C30.5859 55.1836 30.293 55.1914 29.9883 55.207C30.0078 55.4414 30.0195 55.7617 30.0195 56.1602V56.9844H30.6523C31.0938 56.9844 31.4141 56.9766 31.6133 56.9531C31.6328 56.9961 31.6445 57.0781 31.6445 57.2031C31.6445 57.3281 31.6016 57.4102 31.5156 57.4414C31.4297 57.4727 31.2344 57.4883 30.9258 57.4883H30.0195V58.375C30.0195 59.0977 30.0703 59.625 30.1719 59.9609C30.0742 60.0039 29.9492 60.0234 29.7969 60.0234C29.6406 60.0234 29.5391 59.9922 29.4844 59.9219C29.4297 59.8516 29.4062 59.7344 29.4062 59.5664ZM33.0469 59.543L33.0625 58.207V56.6094C33.0625 55.8477 33.0234 55.2266 32.9492 54.7422C33.5195 54.6953 34.1445 54.6719 34.8281 54.6719C35.5078 54.6719 35.8945 54.7148 35.9883 54.793C36.0352 54.8359 36.0625 54.9141 36.0625 55.0234C36.0625 55.1367 36.0391 55.2461 35.9961 55.3516C35.6914 55.2422 35.1992 55.1836 34.5117 55.1836C34.2266 55.1836 33.9336 55.1914 33.6289 55.207C33.6484 55.4414 33.6602 56.0078 33.6602 56.9023H34.293C34.7383 56.9023 35.0586 56.8945 35.2539 56.8711C35.2734 56.918 35.2852 56.9922 35.2852 57.1016C35.2852 57.2109 35.2539 57.2891 35.1992 57.3281C35.1445 57.3711 35.0508 57.3945 34.9219 57.3984C34.7891 57.4062 34.6055 57.4062 34.3672 57.4062H33.6602C33.6602 58.5703 33.6797 59.2695 33.7188 59.5039C33.9531 59.5156 34.1406 59.5195 34.2852 59.5195C35.1797 59.5195 35.7539 59.4609 36.0078 59.3359C36.0469 59.4453 36.0703 59.5547 36.0703 59.6641C36.0703 59.7773 36.043 59.8555 35.9961 59.8945C35.9023 59.9766 35.4922 60.0156 34.7695 60.0156C34.043 60.0156 33.5977 60.0117 33.4414 60.0039C33.2852 59.9961 33.1797 59.9609 33.125 59.8906C33.0703 59.8203 33.0469 59.707 33.0469 59.543ZM36.9375 59.543L36.9531 58.207V56.6094C36.9531 55.8477 36.9141 55.2266 36.8398 54.7422C37.4102 54.6953 38.0352 54.6719 38.7188 54.6719C39.3984 54.6719 39.7852 54.7148 39.8789 54.793C39.9258 54.8359 39.9531 54.9141 39.9531 55.0234C39.9531 55.1367 39.9297 55.2461 39.8867 55.3516C39.582 55.2422 39.0898 55.1836 38.4023 55.1836C38.1172 55.1836 37.8242 55.1914 37.5195 55.207C37.5391 55.4414 37.5508 56.0078 37.5508 56.9023H38.1836C38.6289 56.9023 38.9492 56.8945 39.1445 56.8711C39.1641 56.918 39.1758 56.9922 39.1758 57.1016C39.1758 57.2109 39.1445 57.2891 39.0898 57.3281C39.0352 57.3711 38.9414 57.3945 38.8125 57.3984C38.6797 57.4062 38.4961 57.4062 38.2578 57.4062H37.5508C37.5508 58.5703 37.5703 59.2695 37.6094 59.5039C37.8438 59.5156 38.0312 59.5195 38.1758 59.5195C39.0703 59.5195 39.6445 59.4609 39.8984 59.3359C39.9375 59.4453 39.9609 59.5547 39.9609 59.6641C39.9609 59.7773 39.9336 59.8555 39.8867 59.8945C39.793 59.9766 39.3828 60.0156 38.6602 60.0156C37.9336 60.0156 37.4883 60.0117 37.332 60.0039C37.1758 59.9961 37.0703 59.9609 37.0156 59.8906C36.9609 59.8203 36.9375 59.707 36.9375 59.543ZM46.3008 58.9297C46.5352 59.0234 46.6523 59.1602 46.6523 59.3398C46.6523 59.5195 46.5 59.6875 46.1953 59.8438C45.8906 60 45.5117 60.0781 45.0664 60.0781C44.3164 60.0781 43.7109 59.8281 43.2578 59.3242C42.8047 58.8203 42.5781 58.1484 42.5781 57.3125C42.5781 56.4805 42.8047 55.8242 43.2578 55.3398C43.7109 54.8594 44.3242 54.6172 45.0977 54.6172C45.5117 54.6172 45.8633 54.7031 46.1445 54.8711C46.4258 55.0391 46.5703 55.2461 46.5703 55.4883C46.5703 55.707 46.418 55.8398 46.1172 55.8867C46.0156 55.6289 45.8555 55.4336 45.6367 55.3008C45.418 55.1719 45.1836 55.1055 44.9414 55.1055C44.4375 55.1055 44.0273 55.3047 43.7109 55.7031C43.3906 56.1016 43.2344 56.6172 43.2344 57.25C43.2344 57.8906 43.3945 58.4414 43.7148 58.9023C44.0352 59.3633 44.4805 59.5938 45.0586 59.5938C45.3164 59.5938 45.5547 59.5391 45.7773 59.4258C45.9961 59.3164 46.1719 59.1484 46.3008 58.9297ZM50.1133 57.8555C49.9297 57.3828 49.6562 56.582 49.2891 55.4492C49.2383 55.5742 49.1133 55.9141 48.918 56.4727C48.7227 57.0352 48.5469 57.4961 48.3984 57.8555C48.8125 57.8672 49.1641 57.8711 49.4492 57.8711C49.7305 57.8711 49.9492 57.8672 50.1133 57.8555ZM50.2812 58.3281C49.6797 58.3398 49.3164 58.3438 49.1914 58.3438C49.0625 58.3438 48.7305 58.3398 48.1992 58.3281C47.8398 59.2305 47.6172 59.8438 47.5273 60.168C47.3516 60.1328 47.2266 60.0898 47.1562 60.043C47.082 59.9961 47.0469 59.9336 47.0469 59.8594C47.0469 59.7891 47.1602 59.4883 47.3906 58.9531C48.1562 57.1445 48.6875 55.7344 48.9844 54.7188C49.0859 54.7031 49.1992 54.6953 49.3281 54.6953C49.4531 54.6953 49.543 54.7188 49.5977 54.7656C49.6523 54.8125 49.707 54.9297 49.7695 55.1211C50.1055 56.2031 50.4414 57.1836 50.7812 58.0664C51.1172 58.9492 51.3789 59.5703 51.5586 59.9219C51.4102 60.0273 51.2812 60.0781 51.1758 60.0781C51.0039 60.0781 50.8867 60.0078 50.832 59.8633C50.7305 59.6055 50.5469 59.0938 50.2812 58.3281ZM52.0312 59.5664L52.0469 58.1523V56.5508C52.0469 55.8164 52.0117 55.2031 51.9414 54.7109C52.3359 54.6484 52.7344 54.6172 53.1328 54.6172C54.5625 54.6172 55.2773 55.1484 55.2773 56.207C55.2773 56.6445 55.1562 57 54.918 57.2695C54.6758 57.5391 54.3594 57.7109 53.9648 57.7852C53.9648 57.793 54.0078 57.8906 54.1016 58.082C54.1914 58.2734 54.2539 58.4023 54.2891 58.4648C54.3242 58.5273 54.3789 58.6328 54.4531 58.7773C54.5898 59.043 54.7109 59.2266 54.8125 59.3281C54.9531 59.4844 55.1211 59.5586 55.3242 59.5586C55.3867 59.5586 55.4609 59.5508 55.543 59.5352C55.5898 59.6328 55.6133 59.7148 55.6133 59.7773C55.6133 59.9805 55.4141 60.0781 55.0156 60.0781C54.7969 60.0781 54.5938 59.9727 54.4062 59.7617C54.3047 59.6445 54.2148 59.543 54.1445 59.4492C54.0742 59.3594 53.9844 59.2188 53.8828 59.0234L53.6602 58.6133C53.6172 58.5312 53.5469 58.3789 53.4453 58.1562C53.3438 57.9375 53.2852 57.8086 53.2695 57.7773C53.1211 57.7539 53.0469 57.6953 53.0469 57.6016C53.0469 57.5547 53.0586 57.4805 53.0859 57.3828C53.2344 57.4141 53.3594 57.4258 53.4609 57.4258C53.8203 57.4258 54.0977 57.3203 54.3008 57.1094C54.5039 56.8984 54.6055 56.5977 54.6055 56.1992C54.6055 55.8086 54.4922 55.5273 54.2695 55.3594C54.043 55.1914 53.6992 55.1055 53.2383 55.1055C53.0664 55.1055 52.8555 55.1172 52.6133 55.1367C52.6328 55.4492 52.6445 55.9922 52.6445 56.7695V58.375C52.6445 59.0977 52.6953 59.625 52.7969 59.9609C52.6992 60.0039 52.5742 60.0234 52.4219 60.0234C52.2656 60.0234 52.1641 59.9922 52.1094 59.9219C52.0547 59.8516 52.0312 59.7344 52.0312 59.5664ZM57.207 59.5664L57.2227 58.1523V56.5508C57.2227 56.0586 57.2148 55.6016 57.1992 55.1836C56.4414 55.1836 55.9336 55.1953 55.6797 55.2148C55.6641 55.168 55.6562 55.0938 55.6562 54.9922C55.6562 54.8906 55.6836 54.8242 55.7383 54.7852C55.793 54.7461 55.8867 54.7266 56.0156 54.7188C56.1406 54.7148 56.4258 54.7109 56.8633 54.7109H57.8086C58.6484 54.7109 59.1641 54.7031 59.3516 54.6875C59.3672 54.7383 59.375 54.8125 59.375 54.9062C59.375 55.0078 59.3438 55.0742 59.2891 55.1133C59.2344 55.1523 59.1328 55.1719 58.9922 55.1758C58.8477 55.1836 58.4766 55.1836 57.8789 55.1836C57.8398 55.9492 57.8242 56.4766 57.8242 56.7695V58.375C57.8242 59.0977 57.875 59.625 57.9766 59.9609C57.8789 60.0039 57.7539 60.0234 57.6016 60.0234C57.4453 60.0234 57.3398 59.9922 57.2852 59.9219C57.2305 59.8516 57.207 59.7344 57.207 59.5664Z" fill="white"/>
</svg>
