<svg xmlns="http://www.w3.org/2000/svg" version="1.1" xmlns:xlink="http://www.w3.org/1999/xlink" xmlns:svgjs="http://svgjs.dev/svgjs" width="74" height="62"><svg width="74" height="62" viewBox="0 0 74 62" fill="none" xmlns="http://www.w3.org/2000/svg">
<path fill-rule="evenodd" clip-rule="evenodd" d="M67.6439 0.208686C67.4017 0.318778 67.0714 0.54997 66.9063 0.726117C66.7522 0.902264 66.3889 1.56281 66.1247 2.20135C65.8494 2.83988 65.5302 3.75364 65.4091 4.23804C65.277 4.72245 65.1338 5.5041 65.0678 5.96648C65.0017 6.43988 64.9467 7.03437 64.9467 7.28758C64.9357 7.59584 65.0127 7.87107 65.1669 8.05823C65.321 8.27841 65.4861 8.36648 65.7503 8.36648C65.9705 8.37749 66.1797 8.28942 66.3228 8.13529C66.499 7.94814 66.554 7.68391 66.6201 6.72612C66.6641 5.9885 66.7632 5.383 66.8953 5.07474C67.0494 4.70043 67.2036 4.53529 67.5889 4.34814C67.8641 4.21603 68.3815 3.8307 68.7448 3.50043C69.1081 3.15914 69.5375 2.64171 69.7136 2.32245C69.8788 2.01419 70.0109 1.57382 70.0219 1.34263C70.0219 1.12245 69.9779 0.803181 69.9118 0.627035C69.8458 0.461897 69.6366 0.252723 69.4604 0.164649C69.2843 0.0765759 68.899 -0.000488281 68.6017 -0.000488281C68.3155 -0.000488281 67.8861 0.0985943 67.6439 0.208686ZM55.8201 9.96281C55.6329 10.172 55.4347 10.5353 55.3687 10.7665C55.3136 10.9867 55.2146 13.5518 55.1485 16.4582C55.0825 19.3646 55.0164 25.5628 55.0054 30.2417C54.9944 35.4821 54.9393 38.7298 54.8843 38.7188C54.8182 38.7078 54.521 37.4307 54.2017 35.8894C54.0398 35.0796 53.8353 34.0723 53.6425 33.1229L53.641 33.1155L53.6378 33.0999L53.6373 33.0974L53.6372 33.097C53.4651 32.249 53.3027 31.4492 53.1889 30.8802C53.084 30.3786 52.9507 29.7314 52.8111 29.053L52.8108 29.0516C52.6134 28.0929 52.4032 27.072 52.2421 26.3114C51.9779 25.0124 51.4274 22.4582 51.0311 20.6417C50.6348 18.8252 50.1173 16.4692 49.8641 15.4124C49.6219 14.3555 49.2696 12.9903 49.0825 12.3848C48.8733 11.7023 48.5981 11.0637 48.3448 10.7004C48.1247 10.3702 47.8274 10.0399 47.6953 9.95181C47.5522 9.86373 47.31 9.79768 47.1558 9.79768C46.9907 9.79768 46.7485 9.92979 46.5503 10.128L46.2311 10.4582C46.2311 43.5628 46.2531 47.3169 46.3632 47.4711C46.4403 47.5702 46.6384 47.6802 46.8146 47.7133C47.0347 47.7683 47.1779 47.7133 47.387 47.5041L47.6623 47.2289C47.6623 19.7059 47.6953 12.9793 47.7614 13.0454C47.8164 13.1114 48.0586 13.9922 48.3118 15.027C48.554 16.0619 48.9503 17.7903 49.1925 18.8802C49.4347 19.9702 49.8311 21.7757 50.0733 22.8986C50.3155 24.0215 50.6898 25.772 50.899 26.8069C50.9998 27.3059 51.1289 27.9253 51.2552 28.5317L51.2553 28.5322L51.2559 28.535L51.2561 28.5358L51.2564 28.5372C51.3916 29.1863 51.5236 29.82 51.6146 30.2747C51.8017 31.1555 52.5614 34.9426 53.31 38.6968C54.2568 43.3867 54.7522 45.6766 54.9283 46.0179C55.0604 46.2931 55.2806 46.6234 55.4127 46.7665C55.5669 46.9316 55.765 47.0087 56.0072 47.0087C56.2604 47.0087 56.4256 46.9206 56.5907 46.7114C56.8109 46.4252 56.8219 46.3151 56.7558 45.0821C56.7118 44.3555 56.6347 43.3426 56.5797 42.8252C56.5247 42.3078 56.4366 39.2913 56.4036 36.1096C56.3595 32.928 56.3815 26.4766 56.4586 21.7426C56.5247 17.0197 56.6127 12.7041 56.6347 12.1646C56.6898 11.2619 56.7228 11.1408 57.0201 10.8215C57.2733 10.5353 57.3393 10.3922 57.2843 10.161C57.2513 9.98483 57.1412 9.78667 57.0421 9.7096C56.943 9.63254 56.7008 9.57749 56.5026 9.57749C56.2494 9.57749 56.0733 9.67658 55.8201 9.96281ZM8.02924 10.194C9.64759 10.238 10.3852 10.216 11.0017 10.0949C11.4531 10.0069 11.9595 9.92979 12.1357 9.91878C12.3008 9.91878 12.587 9.98483 12.7632 10.0729C12.9503 10.161 13.1485 10.3481 13.2146 10.4913C13.2916 10.6234 13.3467 10.9096 13.3357 11.1188C13.3357 11.328 13.1375 11.9775 12.8953 12.55C12.6531 13.1224 12.2788 14.2674 12.0586 15.0821C11.8927 15.6959 11.6518 16.5972 11.4536 17.3387L11.4535 17.3392L11.277 17.9995L11.1535 18.4613L11.1534 18.4618L11.1533 18.4621C10.9433 19.248 10.6617 20.3018 10.4623 21.027C10.3559 21.4322 10.2123 21.9701 10.0636 22.5272C9.88894 23.1812 9.70726 23.8617 9.57053 24.3848C9.44645 24.8596 9.29858 25.4162 9.1606 25.9357C9.017 26.4763 8.88411 26.9766 8.79989 27.3023C8.6989 27.6683 8.52916 28.3058 8.34461 28.9989L8.34452 28.9992L8.34431 29L8.34416 29.0006C8.20694 29.5159 8.06155 30.062 7.93016 30.55C7.62191 31.6949 7.02741 33.9518 6.60906 35.5591C6.1797 37.1665 5.62925 39.2252 5.38704 40.1279C5.24413 40.6671 5.04371 41.4057 4.85365 42.106L4.85358 42.1063C4.72157 42.5927 4.59457 43.0607 4.4953 43.4307C4.24209 44.3445 4.0109 45.3683 3.97787 45.7096C3.9008 46.3261 3.9008 46.3371 4.23108 46.4582C4.48429 46.5463 4.96869 46.5353 6.21273 46.4032C7.12649 46.3041 8.85493 46.1059 10.0659 45.9628C11.5302 45.7867 12.3338 45.7316 12.4659 45.8087C12.565 45.8637 12.7081 46.0179 12.7742 46.161C12.8403 46.2931 12.8623 46.5133 12.8292 46.6564C12.7962 46.7885 12.6751 46.9426 12.576 46.9977C12.4659 47.0527 11.5852 47.1958 10.6164 47.3279C9.64759 47.4601 7.88613 47.6582 6.70814 47.7793C4.90264 47.9555 4.47328 47.9775 3.99989 47.8564C3.68062 47.7903 3.2953 47.6032 3.13016 47.4491C2.96503 47.2949 2.75585 47.0087 2.67879 46.8215C2.59071 46.6234 2.52466 46.194 2.52466 45.8857C2.52466 45.5665 2.7008 44.6527 2.90998 43.8711C3.07534 43.284 3.309 42.4052 3.50371 41.6728L3.50375 41.6727L3.50419 41.671C3.56856 41.4289 3.62867 41.2028 3.68062 41.0087L3.80389 40.5476C4.01393 39.7615 4.29573 38.7069 4.4953 37.9812C4.72649 37.1004 5.12282 35.5922 5.38704 34.6234C5.511 34.1491 5.65869 33.5931 5.79656 33.0741L5.79686 33.0729L5.79697 33.0725L5.79705 33.0722L5.79755 33.0703C5.94093 32.5305 6.07358 32.0311 6.15769 31.7059C6.25863 31.34 6.42828 30.7029 6.61275 30.0101L6.61285 30.0097L6.61297 30.0092L6.613 30.0091L6.61305 30.009L6.61311 30.0087L6.61351 30.0072C6.7507 29.492 6.89605 28.9461 7.02741 28.4582C7.33567 27.3133 7.86411 25.3316 8.19438 24.0546C8.42813 23.1799 8.71353 22.1141 8.93738 21.2782L8.93879 21.2729L8.94004 21.2682L8.94111 21.2643L8.94182 21.2616L9.19622 20.3114C9.32137 19.8438 9.5017 19.1593 9.67825 18.4892L9.67846 18.4884C9.79692 18.0388 9.91366 17.5957 10.0109 17.2289C10.2531 16.3261 10.5834 15.0821 10.7375 14.4766C10.8916 13.8711 11.1999 12.9573 11.3981 12.4399C11.6072 11.9224 11.7614 11.4931 11.7503 11.4711C11.7283 11.4601 11.277 11.5041 10.7265 11.5702C10.099 11.6472 9.04209 11.6692 7.86411 11.6362C6.84025 11.5922 5.67328 11.5151 5.27695 11.4601C4.7375 11.372 4.50631 11.2839 4.36319 11.0968C4.2531 10.9536 4.16503 10.7555 4.17603 10.6564C4.17603 10.5463 4.28613 10.3481 4.42925 10.216C4.63842 10.0179 4.74851 9.99584 5.27695 10.0619C5.60723 10.0949 6.85126 10.161 8.02924 10.194ZM20.4696 10.0509C20.2604 10.128 19.9081 10.2931 19.699 10.4252C19.4788 10.5463 19.2036 10.8546 19.0714 11.1298L18.8182 11.6142C18.8182 40.8325 18.8513 46.9867 18.9283 47.1518C18.9944 47.2839 19.1485 47.4601 19.2916 47.5371C19.4568 47.6472 19.743 47.6692 20.2494 47.6252C20.6458 47.5922 21.5595 47.5261 22.2861 47.4931C23.288 47.4491 23.7944 47.4711 24.3779 47.6032C24.8072 47.7023 25.4347 47.8454 25.776 47.9224C26.3595 48.0435 26.4256 48.0325 26.7118 47.8234C26.899 47.6802 27.0311 47.4711 27.0531 47.2729C27.0751 47.0747 27.0091 46.8766 26.888 46.7555C26.7779 46.6454 26.5467 46.5573 26.3595 46.5683C26.1834 46.5683 25.6549 46.4582 25.2036 46.3151C24.499 46.1169 24.1136 46.0729 22.6714 46.0729C21.7357 46.0729 20.7999 46.1059 20.6127 46.15L20.2494 46.238L20.3045 23.9445L24.6971 23.8344C25.0164 23.2619 25.0164 23.1958 24.8733 22.9316L24.6971 22.6234L20.2494 22.5683C20.2384 11.8564 20.2384 11.8344 20.4806 11.6142C20.7008 11.405 20.91 11.394 23.7393 11.339C26.6017 11.2839 26.7669 11.2729 26.921 11.0637C27.0091 10.9426 27.0751 10.7335 27.0751 10.5903C27.0751 10.4582 26.976 10.2491 26.8549 10.128C26.6458 9.91878 26.4916 9.90777 23.7503 9.90777C21.7357 9.91878 20.7338 9.96281 20.4696 10.0509ZM33.5265 10.8435C33.6586 10.6013 33.9228 10.2931 34.132 10.15C34.4292 9.9518 34.6274 9.90777 35.0568 9.9408C35.4421 9.96281 35.7503 10.0729 36.1026 10.3151C36.3889 10.5023 36.8403 10.9977 37.1595 11.4601C37.4678 11.9114 37.8531 12.5169 38.0072 12.8252C38.1503 13.1224 38.5026 13.9151 38.7779 14.5867C39.0531 15.2472 39.4494 16.3922 39.6586 17.1188C39.8788 17.8454 40.11 18.7812 40.176 19.2105C40.2751 19.75 40.2971 20.8619 40.2531 22.9536C40.2201 24.8692 40.132 26.3114 40.0219 26.994C39.9228 27.5885 39.7467 28.5353 39.6146 29.0858C39.4935 29.6472 39.2292 30.55 39.0201 31.1004C38.8219 31.6399 38.4696 32.4105 38.2494 32.8069C38.0292 33.2032 37.6439 33.7867 37.3907 34.1169C37.1375 34.4472 36.6861 34.9096 35.8604 35.6142L37.2586 39.1371C38.0182 41.0747 39.0201 43.5738 39.4714 44.6968C39.9228 45.8197 40.2861 46.8546 40.2861 47.0087C40.2861 47.1628 40.1981 47.372 40.088 47.4821C39.9889 47.5922 39.7687 47.6802 39.6036 47.6692C39.4274 47.6692 39.2292 47.6032 39.1632 47.5261C39.0861 47.4491 38.1834 45.2802 37.1595 42.7151C36.1357 40.139 35.1999 37.794 35.0678 37.5078C34.9467 37.2215 34.8036 36.9793 34.7595 36.9903C34.7045 36.9903 34.6604 39.3243 34.6494 42.1757C34.6164 47.2179 34.6054 47.361 34.3962 47.5151C34.2751 47.6032 34.0439 47.6692 33.8788 47.6692C33.6806 47.6692 33.5045 47.5812 33.4054 47.427C33.2623 47.2068 33.2513 44.95 33.2953 11.2839L33.5265 10.8435ZM66.7632 10.1169C66.521 10.227 66.1136 10.5463 65.8604 10.8215C65.5962 11.1078 65.2659 11.5702 65.1228 11.8564C64.9797 12.1536 64.7595 12.8032 64.6384 13.3206C64.5173 13.838 64.3302 14.6747 64.2311 15.1922C64.143 15.7096 63.9118 17.1188 63.7357 18.3298L63.7113 18.5087L63.7112 18.509L63.711 18.5106L63.7109 18.5109C63.5482 19.7038 63.335 21.2667 63.2513 22.0729C63.1563 22.8855 63.0208 24.3758 62.9225 25.4579L62.9224 25.459L62.91 25.5958C62.8219 26.6857 62.6898 28.3922 62.6347 29.394C62.5797 30.3958 62.5247 32.7738 62.5247 34.6784C62.5247 36.583 62.5797 38.7408 62.6347 39.4674C62.7008 40.194 62.8219 41.2619 62.921 41.8344C63.0091 42.4068 63.1852 43.2215 63.2953 43.6509C63.4054 44.0802 63.6696 44.7958 63.8788 45.2472C64.088 45.6986 64.4733 46.3371 64.7375 46.6674C65.0458 47.0307 65.4311 47.35 65.7724 47.5151C66.0806 47.6692 66.543 47.7903 66.8182 47.7903C67.0935 47.8013 67.4898 47.7683 67.699 47.7243C67.9081 47.6802 68.2825 47.5261 68.5247 47.394C68.7669 47.2509 69.1962 46.8986 69.4714 46.6013C69.7467 46.3151 70.099 45.8527 70.2641 45.5775C70.4182 45.3023 70.6494 44.8069 70.7705 44.4766C70.8806 44.1463 71.0348 43.2986 71.1008 42.605C71.1669 41.9114 71.2769 40.1279 71.343 38.6417C71.4091 37.1555 71.4751 33.1481 71.4751 29.7243C71.4751 26.1683 71.4201 22.4913 71.354 21.1371C71.2769 19.838 71.1669 18.2197 71.1008 17.5591C71.0458 16.8876 70.9137 15.7977 70.8256 15.1371C70.7375 14.4656 70.5614 13.5628 70.4403 13.1224C70.3302 12.6931 70.11 12.0986 69.9669 11.8013C69.8237 11.5151 69.5265 11.0857 69.3283 10.8435C69.1191 10.6013 68.7338 10.2931 68.4586 10.161C68.1944 10.0179 67.798 9.90777 67.5889 9.90777C67.3797 9.90777 67.0054 10.0069 66.7632 10.1169ZM67.0714 11.6032C66.9062 11.7463 66.631 12.0986 66.4659 12.3958C66.3007 12.6931 66.0695 13.3536 65.9484 13.871C65.8273 14.3885 65.6071 15.5775 65.453 16.5133C65.2989 17.449 65.1227 18.5389 65.0677 18.9353C65.0016 19.3316 64.8585 20.5206 64.7374 21.5775C64.6163 22.6344 64.4071 24.671 64.275 26.0912C64.0989 28.0729 64.0328 29.8233 63.9888 33.5224C63.9337 37.6399 63.9558 38.6197 64.1209 40.0729C64.22 41.0087 64.4512 42.3408 64.6273 43.0233C64.8035 43.6949 65.0677 44.5096 65.2218 44.8068C65.3759 45.1151 65.6622 45.5334 65.8604 45.7646C66.0475 45.9848 66.3778 46.227 66.576 46.3151C66.8292 46.4142 67.0383 46.4252 67.3466 46.3591C67.5668 46.2931 67.9741 46.0619 68.2493 45.8197C68.5246 45.5885 68.8989 45.1041 69.0971 44.7408C69.2842 44.3885 69.4934 43.871 69.5594 43.5958C69.6145 43.3206 69.7136 42.3628 69.7796 41.449C69.8457 40.5463 69.9558 37.5188 70.0218 34.7334C70.1099 31.0123 70.1099 28.4142 70.0218 24.9353C69.9558 22.3371 69.8457 19.5298 69.7796 18.7151C69.7246 17.9004 69.5925 16.6344 69.5044 15.9077C69.4163 15.1811 69.2622 14.2454 69.1631 13.816C69.075 13.3977 68.8438 12.7481 68.6457 12.3958C68.4585 12.0435 68.1833 11.6582 68.0292 11.5371C67.875 11.427 67.6769 11.3279 67.5668 11.3389C67.4677 11.3389 67.2475 11.46 67.0714 11.6032ZM34.7704 11.5481C34.6824 11.7022 34.6493 14.9499 34.6604 23.1628C34.6714 30.6931 34.7044 34.5683 34.7815 34.5683C34.8365 34.5683 35.1007 34.4032 35.3649 34.194C35.6182 33.9958 36.0255 33.5555 36.2787 33.2362C36.5319 32.9059 36.9723 32.1683 37.2585 31.5958C37.5998 30.9022 37.9081 30.0655 38.1503 29.1188C38.3594 28.2931 38.5796 27.005 38.6787 26.0692C38.7778 25.1334 38.8549 23.46 38.8549 22.161C38.8549 20.5646 38.7998 19.6068 38.6897 18.9903C38.5906 18.5059 38.2934 17.438 38.0182 16.6233C37.7429 15.8087 37.2365 14.5426 36.8732 13.816C36.5099 13.0564 36.0145 12.2527 35.7282 11.9224C35.453 11.6032 35.1448 11.3389 35.0567 11.3389C34.9686 11.3389 34.8475 11.438 34.7704 11.5481Z" fill="black"></path>
<path d="M18.7383 58.9299C18.9727 59.0237 19.0898 59.1604 19.0898 59.3401C19.0898 59.5198 18.9375 59.6877 18.6328 59.844C18.3281 60.0002 17.9492 60.0784 17.5039 60.0784C16.7539 60.0784 16.1484 59.8284 15.6953 59.3245C15.2422 58.8206 15.0156 58.1487 15.0156 57.3127C15.0156 56.4807 15.2422 55.8245 15.6953 55.3401C16.1484 54.8596 16.7617 54.6174 17.5352 54.6174C17.9492 54.6174 18.3008 54.7034 18.582 54.8713C18.8633 55.0393 19.0078 55.2463 19.0078 55.4885C19.0078 55.7073 18.8555 55.8401 18.5547 55.887C18.4531 55.6292 18.293 55.4338 18.0742 55.301C17.8555 55.1721 17.6211 55.1057 17.3789 55.1057C16.875 55.1057 16.4648 55.3049 16.1484 55.7034C15.8281 56.1018 15.6719 56.6174 15.6719 57.2502C15.6719 57.8909 15.832 58.4417 16.1523 58.9026C16.4727 59.3635 16.918 59.594 17.4961 59.594C17.7539 59.594 17.9922 59.5393 18.2148 59.426C18.4336 59.3167 18.6094 59.1487 18.7383 58.9299ZM24.75 57.344C24.75 58.1799 24.5273 58.844 24.082 59.3362C23.6367 59.8323 23.0391 60.0784 22.2891 60.0784C21.5391 60.0784 20.9414 59.8323 20.5 59.3362C20.0547 58.844 19.8359 58.1799 19.8359 57.344C19.8359 56.5159 20.0547 55.8518 20.5 55.3596C20.9414 54.8674 21.5391 54.6174 22.2891 54.6174C23.0391 54.6174 23.6367 54.8674 24.082 55.3596C24.5273 55.8518 24.75 56.5159 24.75 57.344ZM23.6758 55.8792C23.543 55.6448 23.3555 55.4573 23.1172 55.3167C22.875 55.176 22.6016 55.1057 22.293 55.1057C21.7422 55.1057 21.3047 55.2932 20.9805 55.6682C20.6523 56.0432 20.4922 56.5237 20.4922 57.1057C20.4922 57.7385 20.625 58.301 20.8945 58.7932C21.0273 59.0393 21.2109 59.2346 21.4492 59.3792C21.6836 59.5237 21.9609 59.594 22.2773 59.594C22.8516 59.594 23.2969 59.4026 23.6094 59.0159C23.9219 58.6292 24.0781 58.1252 24.0781 57.5081C24.0781 56.8948 23.9414 56.3518 23.6758 55.8792ZM25.7656 59.5667L25.7812 58.1526V56.6096C25.7812 55.8479 25.7422 55.2268 25.668 54.7424C26.2383 54.6956 26.8633 54.6721 27.5469 54.6721C28.2266 54.6721 28.6133 54.7151 28.707 54.7932C28.7539 54.8362 28.7812 54.9143 28.7812 55.0237C28.7812 55.137 28.7578 55.2463 28.7148 55.3518C28.4102 55.2424 27.918 55.1838 27.2305 55.1838C26.9453 55.1838 26.6523 55.1917 26.3477 55.2073C26.3672 55.4417 26.3789 55.762 26.3789 56.1604V56.9846H27.0117C27.4531 56.9846 27.7734 56.9768 27.9727 56.9534C27.9922 56.9963 28.0039 57.0784 28.0039 57.2034C28.0039 57.3284 27.9609 57.4104 27.875 57.4417C27.7891 57.4729 27.5938 57.4885 27.2852 57.4885H26.3789V58.3752C26.3789 59.0979 26.4297 59.6252 26.5312 59.9612C26.4336 60.0042 26.3086 60.0237 26.1562 60.0237C26 60.0237 25.8984 59.9924 25.8438 59.9221C25.7891 59.8518 25.7656 59.7346 25.7656 59.5667ZM29.4062 59.5667L29.4219 58.1526V56.6096C29.4219 55.8479 29.3828 55.2268 29.3086 54.7424C29.8789 54.6956 30.5039 54.6721 31.1875 54.6721C31.8672 54.6721 32.2539 54.7151 32.3477 54.7932C32.3945 54.8362 32.4219 54.9143 32.4219 55.0237C32.4219 55.137 32.3984 55.2463 32.3555 55.3518C32.0508 55.2424 31.5586 55.1838 30.8711 55.1838C30.5859 55.1838 30.293 55.1917 29.9883 55.2073C30.0078 55.4417 30.0195 55.762 30.0195 56.1604V56.9846H30.6523C31.0938 56.9846 31.4141 56.9768 31.6133 56.9534C31.6328 56.9963 31.6445 57.0784 31.6445 57.2034C31.6445 57.3284 31.6016 57.4104 31.5156 57.4417C31.4297 57.4729 31.2344 57.4885 30.9258 57.4885H30.0195V58.3752C30.0195 59.0979 30.0703 59.6252 30.1719 59.9612C30.0742 60.0042 29.9492 60.0237 29.7969 60.0237C29.6406 60.0237 29.5391 59.9924 29.4844 59.9221C29.4297 59.8518 29.4062 59.7346 29.4062 59.5667ZM33.0469 59.5432L33.0625 58.2073V56.6096C33.0625 55.8479 33.0234 55.2268 32.9492 54.7424C33.5195 54.6956 34.1445 54.6721 34.8281 54.6721C35.5078 54.6721 35.8945 54.7151 35.9883 54.7932C36.0352 54.8362 36.0625 54.9143 36.0625 55.0237C36.0625 55.137 36.0391 55.2463 35.9961 55.3518C35.6914 55.2424 35.1992 55.1838 34.5117 55.1838C34.2266 55.1838 33.9336 55.1917 33.6289 55.2073C33.6484 55.4417 33.6602 56.0081 33.6602 56.9026H34.293C34.7383 56.9026 35.0586 56.8948 35.2539 56.8713C35.2734 56.9182 35.2852 56.9924 35.2852 57.1018C35.2852 57.2112 35.2539 57.2893 35.1992 57.3284C35.1445 57.3713 35.0508 57.3948 34.9219 57.3987C34.7891 57.4065 34.6055 57.4065 34.3672 57.4065H33.6602C33.6602 58.5706 33.6797 59.2698 33.7188 59.5042C33.9531 59.5159 34.1406 59.5198 34.2852 59.5198C35.1797 59.5198 35.7539 59.4612 36.0078 59.3362C36.0469 59.4456 36.0703 59.5549 36.0703 59.6643C36.0703 59.7776 36.043 59.8557 35.9961 59.8948C35.9023 59.9768 35.4922 60.0159 34.7695 60.0159C34.043 60.0159 33.5977 60.012 33.4414 60.0042C33.2852 59.9963 33.1797 59.9612 33.125 59.8909C33.0703 59.8206 33.0469 59.7073 33.0469 59.5432ZM36.9375 59.5432L36.9531 58.2073V56.6096C36.9531 55.8479 36.9141 55.2268 36.8398 54.7424C37.4102 54.6956 38.0352 54.6721 38.7188 54.6721C39.3984 54.6721 39.7852 54.7151 39.8789 54.7932C39.9258 54.8362 39.9531 54.9143 39.9531 55.0237C39.9531 55.137 39.9297 55.2463 39.8867 55.3518C39.582 55.2424 39.0898 55.1838 38.4023 55.1838C38.1172 55.1838 37.8242 55.1917 37.5195 55.2073C37.5391 55.4417 37.5508 56.0081 37.5508 56.9026H38.1836C38.6289 56.9026 38.9492 56.8948 39.1445 56.8713C39.1641 56.9182 39.1758 56.9924 39.1758 57.1018C39.1758 57.2112 39.1445 57.2893 39.0898 57.3284C39.0352 57.3713 38.9414 57.3948 38.8125 57.3987C38.6797 57.4065 38.4961 57.4065 38.2578 57.4065H37.5508C37.5508 58.5706 37.5703 59.2698 37.6094 59.5042C37.8438 59.5159 38.0312 59.5198 38.1758 59.5198C39.0703 59.5198 39.6445 59.4612 39.8984 59.3362C39.9375 59.4456 39.9609 59.5549 39.9609 59.6643C39.9609 59.7776 39.9336 59.8557 39.8867 59.8948C39.793 59.9768 39.3828 60.0159 38.6602 60.0159C37.9336 60.0159 37.4883 60.012 37.332 60.0042C37.1758 59.9963 37.0703 59.9612 37.0156 59.8909C36.9609 59.8206 36.9375 59.7073 36.9375 59.5432ZM46.3008 58.9299C46.5352 59.0237 46.6523 59.1604 46.6523 59.3401C46.6523 59.5198 46.5 59.6877 46.1953 59.844C45.8906 60.0002 45.5117 60.0784 45.0664 60.0784C44.3164 60.0784 43.7109 59.8284 43.2578 59.3245C42.8047 58.8206 42.5781 58.1487 42.5781 57.3127C42.5781 56.4807 42.8047 55.8245 43.2578 55.3401C43.7109 54.8596 44.3242 54.6174 45.0977 54.6174C45.5117 54.6174 45.8633 54.7034 46.1445 54.8713C46.4258 55.0393 46.5703 55.2463 46.5703 55.4885C46.5703 55.7073 46.418 55.8401 46.1172 55.887C46.0156 55.6292 45.8555 55.4338 45.6367 55.301C45.418 55.1721 45.1836 55.1057 44.9414 55.1057C44.4375 55.1057 44.0273 55.3049 43.7109 55.7034C43.3906 56.1018 43.2344 56.6174 43.2344 57.2502C43.2344 57.8909 43.3945 58.4417 43.7148 58.9026C44.0352 59.3635 44.4805 59.594 45.0586 59.594C45.3164 59.594 45.5547 59.5393 45.7773 59.426C45.9961 59.3167 46.1719 59.1487 46.3008 58.9299ZM50.1133 57.8557C49.9297 57.3831 49.6562 56.5823 49.2891 55.4495C49.2383 55.5745 49.1133 55.9143 48.918 56.4729C48.7227 57.0354 48.5469 57.4963 48.3984 57.8557C48.8125 57.8674 49.1641 57.8713 49.4492 57.8713C49.7305 57.8713 49.9492 57.8674 50.1133 57.8557ZM50.2812 58.3284C49.6797 58.3401 49.3164 58.344 49.1914 58.344C49.0625 58.344 48.7305 58.3401 48.1992 58.3284C47.8398 59.2307 47.6172 59.844 47.5273 60.1682C47.3516 60.1331 47.2266 60.0901 47.1562 60.0432C47.082 59.9963 47.0469 59.9338 47.0469 59.8596C47.0469 59.7893 47.1602 59.4885 47.3906 58.9534C48.1562 57.1448 48.6875 55.7346 48.9844 54.719C49.0859 54.7034 49.1992 54.6956 49.3281 54.6956C49.4531 54.6956 49.543 54.719 49.5977 54.7659C49.6523 54.8127 49.707 54.9299 49.7695 55.1213C50.1055 56.2034 50.4414 57.1838 50.7812 58.0667C51.1172 58.9495 51.3789 59.5706 51.5586 59.9221C51.4102 60.0276 51.2812 60.0784 51.1758 60.0784C51.0039 60.0784 50.8867 60.0081 50.832 59.8635C50.7305 59.6057 50.5469 59.094 50.2812 58.3284ZM52.0312 59.5667L52.0469 58.1526V56.551C52.0469 55.8167 52.0117 55.2034 51.9414 54.7112C52.3359 54.6487 52.7344 54.6174 53.1328 54.6174C54.5625 54.6174 55.2773 55.1487 55.2773 56.2073C55.2773 56.6448 55.1562 57.0002 54.918 57.2698C54.6758 57.5393 54.3594 57.7112 53.9648 57.7854C53.9648 57.7932 54.0078 57.8909 54.1016 58.0823C54.1914 58.2737 54.2539 58.4026 54.2891 58.4651C54.3242 58.5276 54.3789 58.6331 54.4531 58.7776C54.5898 59.0432 54.7109 59.2268 54.8125 59.3284C54.9531 59.4846 55.1211 59.5588 55.3242 59.5588C55.3867 59.5588 55.4609 59.551 55.543 59.5354C55.5898 59.6331 55.6133 59.7151 55.6133 59.7776C55.6133 59.9807 55.4141 60.0784 55.0156 60.0784C54.7969 60.0784 54.5938 59.9729 54.4062 59.762C54.3047 59.6448 54.2148 59.5432 54.1445 59.4495C54.0742 59.3596 53.9844 59.219 53.8828 59.0237L53.6602 58.6135C53.6172 58.5315 53.5469 58.3792 53.4453 58.1565C53.3438 57.9377 53.2852 57.8088 53.2695 57.7776C53.1211 57.7542 53.0469 57.6956 53.0469 57.6018C53.0469 57.5549 53.0586 57.4807 53.0859 57.3831C53.2344 57.4143 53.3594 57.426 53.4609 57.426C53.8203 57.426 54.0977 57.3206 54.3008 57.1096C54.5039 56.8987 54.6055 56.5979 54.6055 56.1995C54.6055 55.8088 54.4922 55.5276 54.2695 55.3596C54.043 55.1917 53.6992 55.1057 53.2383 55.1057C53.0664 55.1057 52.8555 55.1174 52.6133 55.137C52.6328 55.4495 52.6445 55.9924 52.6445 56.7698V58.3752C52.6445 59.0979 52.6953 59.6252 52.7969 59.9612C52.6992 60.0042 52.5742 60.0237 52.4219 60.0237C52.2656 60.0237 52.1641 59.9924 52.1094 59.9221C52.0547 59.8518 52.0312 59.7346 52.0312 59.5667ZM57.207 59.5667L57.2227 58.1526V56.551C57.2227 56.0588 57.2148 55.6018 57.1992 55.1838C56.4414 55.1838 55.9336 55.1956 55.6797 55.2151C55.6641 55.1682 55.6562 55.094 55.6562 54.9924C55.6562 54.8909 55.6836 54.8245 55.7383 54.7854C55.793 54.7463 55.8867 54.7268 56.0156 54.719C56.1406 54.7151 56.4258 54.7112 56.8633 54.7112H57.8086C58.6484 54.7112 59.1641 54.7034 59.3516 54.6877C59.3672 54.7385 59.375 54.8127 59.375 54.9065C59.375 55.0081 59.3438 55.0745 59.2891 55.1135C59.2344 55.1526 59.1328 55.1721 58.9922 55.176C58.8477 55.1838 58.4766 55.1838 57.8789 55.1838C57.8398 55.9495 57.8242 56.4768 57.8242 56.7698V58.3752C57.8242 59.0979 57.875 59.6252 57.9766 59.9612C57.8789 60.0042 57.7539 60.0237 57.6016 60.0237C57.4453 60.0237 57.3398 59.9924 57.2852 59.9221C57.2305 59.8518 57.207 59.7346 57.207 59.5667Z" fill="black"></path>
</svg><style>@media (prefers-color-scheme: light) { :root { filter: none; } }
@media (prefers-color-scheme: dark) { :root { filter: none; } }
</style></svg>